<svg width="16" height="17" viewBox="0 0 16 17" fill="none" xmlns="http://www.w3.org/2000/svg">
<path d="M15.9442 3.31074C15.3775 3.57485 14.7737 3.74991 14.1442 3.83491C14.7918 3.42407 15.2861 2.77848 15.5185 2.00032C14.9147 2.38282 14.248 2.653 13.5375 2.80378C12.9641 2.15514 12.147 1.75342 11.2556 1.75342C9.52605 1.75342 8.13367 3.24497 8.13367 5.07348C8.13367 5.33657 8.15462 5.58955 8.20605 5.83038C5.60891 5.6958 3.31082 4.37324 1.76701 2.35854C1.49748 2.85538 1.33939 3.42407 1.33939 4.03628C1.33939 5.1858 1.89653 6.20479 2.72701 6.79473C2.2251 6.78461 1.73272 6.62979 1.31558 6.38592C1.31558 6.39604 1.31558 6.40919 1.31558 6.42235C1.31558 8.03532 2.39844 9.37507 3.81844 9.68366C3.56415 9.75757 3.28701 9.79294 2.99939 9.79294C2.79939 9.79294 2.59748 9.7808 2.40796 9.73628C2.81272 11.0508 3.96129 12.0171 5.32701 12.0485C4.26415 12.9319 2.91463 13.4641 1.45368 13.4641C1.19748 13.4641 0.95177 13.452 0.706055 13.4186C2.08987 14.3668 3.72987 14.9082 5.49844 14.9082C11.247 14.9082 14.3899 9.84864 14.3899 5.46306C14.3899 5.31633 14.3851 5.17467 14.3785 5.03401C14.9984 4.56651 15.5194 3.98264 15.9442 3.31074Z" fill="white"/>
</svg>
