<svg width="16" height="17" viewBox="0 0 16 17" fill="none" xmlns="http://www.w3.org/2000/svg">
<path d="M11.1823 0.235352H5.46796C2.83844 0.235352 0.706055 2.50101 0.706055 5.29488V11.3663C0.706055 14.1601 2.83844 16.4258 5.46796 16.4258H11.1823C13.8118 16.4258 15.9442 14.1601 15.9442 11.3663V5.29488C15.9442 2.50101 13.8118 0.235352 11.1823 0.235352ZM14.5156 11.3663C14.5156 13.3193 13.0204 14.908 11.1823 14.908H5.46796C3.62987 14.908 2.13463 13.3193 2.13463 11.3663V5.29488C2.13463 3.3419 3.62987 1.75321 5.46796 1.75321H11.1823C13.0204 1.75321 14.5156 3.3419 14.5156 5.29488V11.3663Z" fill="white"/>
<path d="M8.32518 4.2832C6.22134 4.2832 4.51562 6.09552 4.51562 8.33081C4.51562 10.5661 6.22134 12.3784 8.32518 12.3784C10.429 12.3784 12.1347 10.5661 12.1347 8.33081C12.1347 6.09552 10.429 4.2832 8.32518 4.2832ZM8.32518 10.8606C7.01277 10.8606 5.9442 9.72521 5.9442 8.33081C5.9442 6.93541 7.01277 5.80106 8.32518 5.80106C9.63756 5.80106 10.7061 6.93541 10.7061 8.33081C10.7061 9.72521 9.63756 10.8606 8.32518 10.8606Z" fill="white"/>
<path d="M12.4207 4.51862C12.701 4.51862 12.9283 4.27715 12.9283 3.97929C12.9283 3.68141 12.701 3.43994 12.4207 3.43994C12.1404 3.43994 11.9131 3.68141 11.9131 3.97929C11.9131 4.27715 12.1404 4.51862 12.4207 4.51862Z" fill="white"/>
</svg>
