<?xml version="1.0"?>
<svg xmlns="http://www.w3.org/2000/svg" xmlns:xlink="http://www.w3.org/1999/xlink" xmlns:svgjs="http://svgjs.com/svgjs" version="1.1" width="512" height="512" x="0" y="0" viewBox="0 0 64 64" style="enable-background:new 0 0 512 512" xml:space="preserve"><g><g xmlns="http://www.w3.org/2000/svg" id="Collaboration"><path d="M32,15a5,5,0,1,0-5-5A5.0059,5.0059,0,0,0,32,15Zm0-8a3,3,0,1,1-3,3A3.0033,3.0033,0,0,1,32,7Z" fill="#ffffff" data-original="#000000" style=""/><path d="M32,27A13,13,0,1,0,19,14,13.02,13.02,0,0,0,32,27Zm0-2a10.9628,10.9628,0,0,1-7.8394-3.2968A12.2535,12.2535,0,0,1,32,19a12.2535,12.2535,0,0,1,7.8394,2.7032A10.9628,10.9628,0,0,1,32,25ZM32,3A10.9943,10.9943,0,0,1,41.11,20.1584a14.7161,14.7161,0,0,0-18.219,0A10.9943,10.9943,0,0,1,32,3Z" fill="#ffffff" data-original="#000000" style=""/><path d="M51,51a5,5,0,1,0-5-5A5.0059,5.0059,0,0,0,51,51Zm0-8a3,3,0,1,1-3,3A3.0033,3.0033,0,0,1,51,43Z" fill="#ffffff" data-original="#000000" style=""/><path d="M64,50A13,13,0,1,0,51,63,13.0144,13.0144,0,0,0,64,50ZM51,39A10.9943,10.9943,0,0,1,60.11,56.1584a14.7161,14.7161,0,0,0-18.219,0A10.9943,10.9943,0,0,1,51,39Zm0,22a10.9628,10.9628,0,0,1-7.8394-3.2968,12.7189,12.7189,0,0,1,15.6788,0A10.9628,10.9628,0,0,1,51,61Z" fill="#ffffff" data-original="#000000" style=""/><path d="M13,37A13,13,0,1,0,26,50,13.0144,13.0144,0,0,0,13,37Zm0,2a10.9943,10.9943,0,0,1,9.11,17.1584A14.2694,14.2694,0,0,0,13,53a14.2694,14.2694,0,0,0-9.1095,3.1584A10.9943,10.9943,0,0,1,13,39Zm0,22a10.9628,10.9628,0,0,1-7.8394-3.2968A12.2535,12.2535,0,0,1,13,55a12.2535,12.2535,0,0,1,7.8394,2.7032A10.9628,10.9628,0,0,1,13,61Z" fill="#ffffff" data-original="#000000" style=""/><path d="M13,51a5,5,0,1,0-5-5A5.0059,5.0059,0,0,0,13,51Zm0-8a3,3,0,1,1-3,3A3.0033,3.0033,0,0,1,13,43Z" fill="#ffffff" data-original="#000000" style=""/><path d="M54,33c0,.48-.02.96-.0479,1.44a1,1,0,0,0,.9385,1.0576c.02.0015.0406.002.0606.002a1,1,0,0,0,.997-.94C55.98,34.04,56,33.52,56,33a24.0053,24.0053,0,0,0-7.4941-17.3975,1,1,0,0,0-1.3721,1.4551A21.9984,21.9984,0,0,1,54,33Z" fill="#ffffff" data-original="#000000" style=""/><path d="M9.0488,35.5c.02,0,.04-.0005.0606-.002a1,1,0,0,0,.9385-1.0576C10.02,33.96,10,33.48,10,33a21.9984,21.9984,0,0,1,6.8662-15.9424,1,1,0,1,0-1.3721-1.4551A24.0053,24.0053,0,0,0,8,33c0,.52.0205,1.04.0518,1.56A1,1,0,0,0,9.0488,35.5Z" fill="#ffffff" data-original="#000000" style=""/><path d="M35.8569,54.665a22.4824,22.4824,0,0,1-7.7138,0,1,1,0,0,0-.3457,1.97,24.3637,24.3637,0,0,0,8.4052,0,1,1,0,0,0-.3457-1.97Z" fill="#ffffff" data-original="#000000" style=""/></g></g></svg>
