<svg width="365" height="521" viewBox="0 0 365 521" fill="none" xmlns="http://www.w3.org/2000/svg">
<rect width="365" height="521" fill="url(#paint0_radial_7_9)"/>
<path d="M233.575 256.833C237.767 261.525 243.24 260.559 247.968 256.833C252.697 253.107 261.05 243.093 256.858 238.401L218.527 193.964L178.869 147.989C174.968 143.466 166.097 145.666 159.24 149.852C157.301 153.777 155.074 155.702 154.133 161.102L233.575 256.833Z" fill="white"/>
<path d="M211.643 115.51C211.643 115.51 184.857 100.559 159.472 119.912L123.934 147.004C123.934 147.004 119.674 142.392 114.596 146.262L109.519 150.133C109.519 150.133 104.443 154.003 108.703 158.616L125.743 177.066C125.743 177.066 130.003 181.679 135.08 177.808L140.157 173.938C140.157 173.938 145.234 170.067 140.974 165.455L140.642 165.095C144.539 162.229 150.232 159.446 155.388 162.326L161.062 152.629C161.769 151.421 162.964 150.514 164.391 150.103L175.696 146.845C175.696 146.845 172.252 133.749 182.407 126.008C192.56 118.268 197.229 118.638 206.566 119.381C215.903 120.123 211.643 115.51 211.643 115.51Z" fill="white"/>
<defs>
<radialGradient id="paint0_radial_7_9" cx="0" cy="0" r="1" gradientUnits="userSpaceOnUse" gradientTransform="translate(324.393 54.7051) rotate(124.826) scale(568.033 532.598)">
<stop stop-color="#0569FF"/>
<stop offset="0.546875" stop-color="#9E00FF"/>
<stop offset="1" stop-color="#FFAC0B"/>
</radialGradient>
</defs>
</svg>
