<svg width="40" height="38" viewBox="0 0 40 38" fill="none" xmlns="http://www.w3.org/2000/svg">
<path d="M33.1192 6.16333H30.5357V4.64957H36.3767C37.1852 4.64957 37.843 3.99175 37.843 3.18323V1.46634C37.843 0.657818 37.1852 0 36.3767 0H29.9498C29.6262 0 29.3638 0.262268 29.3638 0.585942V6.16333H16.1396C12.4847 6.16333 9.48679 9.02788 9.27164 12.6297H1.05579C0.786803 12.6297 0.530864 12.7308 0.338753 12.9111C0.123517 13.1099 0 13.3921 0 13.6855V24.0316C0 24.325 0.123517 24.6072 0.335315 24.8028C0.530864 24.9864 0.786803 25.0875 1.05579 25.0875L21.8486 25.0879V26.7627C21.8486 27.8224 22.7108 28.6846 23.7706 28.6846H24.5468V36.4625C24.5468 36.7862 24.8091 37.0485 25.1327 37.0485C25.4563 37.0485 25.7186 36.7862 25.7186 36.4625V28.6846H28.1306V36.4625C28.1306 36.7862 28.393 37.0485 28.7166 37.0485C29.0401 37.0485 29.3025 36.7862 29.3025 36.4625V28.6846H30.0787C31.1384 28.6846 32.0006 27.8225 32.0006 26.7627V25.0879H32.2372C32.5608 25.0879 32.8231 24.8257 32.8231 24.502C32.8231 24.1783 32.5608 23.916 32.2372 23.916H23.0205V21.9494H38.8281V23.6214C38.8281 23.7838 38.696 23.916 38.5337 23.916H35.0024C34.6788 23.916 34.4164 24.1782 34.4164 24.5019C34.4164 24.8256 34.6788 25.0879 35.0024 25.0879H38.5337C39.3422 25.0879 40 24.43 40 23.6214V13.0442C40 9.24999 36.9133 6.16333 33.1192 6.16333ZM30.5357 1.17196H36.3767C36.539 1.17196 36.6711 1.30399 36.6711 1.46642V3.18331C36.6711 3.34565 36.539 3.47776 36.3767 3.47776H30.5357V1.17196ZM2.19916 23.9155L7.33053 19.6223L8.33788 20.465C8.53421 20.6293 8.77483 20.7114 9.01546 20.7114C9.25609 20.7114 9.49671 20.6292 9.69289 20.465L10.7003 19.6222L15.8318 23.9155H2.19916ZM6.41739 18.8584L1.17188 23.2471V14.4698L6.41739 18.8584ZM9.01538 19.5039L2.19924 13.8015H15.8315L9.01538 19.5039ZM30.8287 26.7626C30.8287 27.1761 30.4922 27.5126 30.0786 27.5126H23.7705C23.3569 27.5126 23.0204 27.1761 23.0204 26.7626V25.0878H30.8286V26.7626H30.8287ZM23.0205 20.7775V18.1099C23.0205 17.7862 22.7581 17.524 22.4346 17.524C22.111 17.524 21.8486 17.7862 21.8486 18.1099V23.9159H18.0309V20.1932C18.0309 19.8695 17.7686 19.6073 17.445 19.6073C17.1214 19.6073 16.859 19.8695 16.859 20.1932V23.2471L11.6135 18.8583L16.859 14.4698V17.428C16.859 17.7517 17.1214 18.014 17.445 18.014C17.7686 18.014 18.0309 17.7517 18.0309 17.428V13.6855C18.0309 13.3921 17.9074 13.1099 17.6956 12.9143C17.5001 12.7307 17.2441 12.6296 16.9751 12.6296H10.4474C10.6607 9.67469 13.1313 7.33514 16.1397 7.33514C19.2876 7.33514 21.8486 9.89617 21.8486 13.0441V15.3447C21.8486 15.6683 22.111 15.9306 22.4346 15.9306C22.7581 15.9306 23.0205 15.6683 23.0205 15.3447V13.0442C23.0205 10.6697 21.8115 8.57233 19.9768 7.33521H29.3638V11.8552C29.3638 12.1788 29.6262 12.4411 29.9498 12.4411C30.2734 12.4411 30.5357 12.1788 30.5357 11.8552V7.33521H33.1192C36.2671 7.33521 38.8281 9.89625 38.8281 13.0442V20.7775H23.0205Z" fill="white"/>
</svg>
