<svg width="88" height="18" viewBox="0 0 88 18" fill="none" xmlns="http://www.w3.org/2000/svg">
<path d="M28.5483 14.0871C28.0698 14.1103 27.5965 13.9888 27.2047 13.7423C27.041 13.634 26.9094 13.4917 26.821 13.3278C26.7327 13.1638 26.6905 12.9831 26.6979 12.8013V6.14235C26.694 6.11416 26.6973 6.08554 26.7076 6.05868C26.718 6.03181 26.7351 6.00741 26.7576 5.98732C26.7801 5.96723 26.8074 5.95199 26.8375 5.94276C26.8676 5.93352 26.8996 5.93054 26.9312 5.93404H28.2828C28.4357 5.93404 28.5081 6.00587 28.5081 6.14235V12.2841C28.5081 12.5571 28.6449 12.6936 28.9265 12.6936C29.0458 12.698 29.1652 12.6858 29.2805 12.6576C29.4414 12.6576 29.5299 12.7007 29.5379 12.83L29.6586 13.728C29.6644 13.7541 29.6639 13.7811 29.657 13.8071C29.6501 13.8331 29.6371 13.8574 29.6188 13.8785C29.6005 13.8996 29.5774 13.917 29.5509 13.9294C29.5245 13.9419 29.4953 13.9491 29.4655 13.9506C29.1695 14.038 28.8601 14.084 28.5483 14.0871V14.0871Z" fill="white"/>
<path d="M34.7871 14.0089C34.1828 14.5406 33.4235 14.8315 32.6396 14.8315C31.8558 14.8315 31.0964 14.5406 30.4922 14.0089C29.961 13.4379 29.6631 12.6667 29.6631 11.863C29.6631 11.0592 29.961 10.288 30.4922 9.71699C31.0976 9.18802 31.8565 8.89893 32.6396 8.89893C33.4228 8.89893 34.1817 9.18802 34.7871 9.71699C35.306 10.2933 35.5957 11.0608 35.5957 11.8592C35.5957 12.6575 35.306 13.4251 34.7871 14.0013V14.0089ZM31.6232 13.0027C31.9036 13.2732 32.2684 13.423 32.6468 13.423C33.0252 13.423 33.39 13.2732 33.6704 13.0027C33.9242 12.6919 34.064 12.2939 34.064 11.882C34.064 11.4702 33.9242 11.0722 33.6704 10.7614C33.39 10.4909 33.0252 10.341 32.6468 10.341C32.2684 10.341 31.9036 10.4909 31.6232 10.7614C31.3694 11.0722 31.2296 11.4702 31.2296 11.882C31.2296 12.2939 31.3694 12.6919 31.6232 13.0027Z" fill="white"/>
<path d="M42.8104 9.06725C42.946 9.06725 43.0102 9.13965 43.0102 9.27722V14.4685C43.0226 14.8189 42.958 15.1677 42.8211 15.4895C42.6841 15.8114 42.4782 16.0983 42.2183 16.3292C41.6415 16.8284 40.8997 17.0872 40.1424 17.0533C39.4583 17.0777 38.7834 16.8881 38.2091 16.5103C37.9638 16.3468 37.7543 16.1339 37.5935 15.8848C37.4328 15.6357 37.3242 15.3557 37.2745 15.0622C37.2745 14.9174 37.2745 14.8522 37.4672 14.8522H38.6656C38.7165 14.854 38.7658 14.8706 38.8076 14.9002C38.8494 14.9297 38.8818 14.9709 38.9011 15.0188C38.9788 15.2387 39.1337 15.4217 39.3362 15.5328C39.583 15.662 39.8576 15.7267 40.1352 15.7211C40.3027 15.7304 40.4704 15.7057 40.6284 15.6485C40.7864 15.5914 40.9316 15.5028 41.0555 15.388C41.1687 15.2679 41.2567 15.1259 41.3144 14.9703C41.372 14.8148 41.398 14.649 41.3908 14.483V14.0268C40.9617 14.3472 40.4394 14.5128 39.9069 14.4975C39.5343 14.5112 39.1627 14.4484 38.8145 14.3128C38.4664 14.1772 38.1488 13.9715 37.8809 13.7083C37.3666 13.1682 37.0791 12.4465 37.0791 11.6955C37.0791 10.9444 37.3666 10.2227 37.8809 9.68268C38.1501 9.42172 38.4681 9.21809 38.816 9.0838C39.164 8.9495 39.5349 8.88726 39.9069 8.90073C40.4548 8.88604 40.9911 9.06237 41.4265 9.40031V9.28446C41.4232 9.25671 41.426 9.22857 41.4348 9.20208C41.4436 9.1756 41.4581 9.15142 41.4772 9.13132C41.4963 9.11121 41.5196 9.09569 41.5454 9.08586C41.5712 9.07603 41.5988 9.07215 41.6262 9.07449L42.8104 9.06725ZM40.0425 13.2087C40.2263 13.2145 40.4091 13.1792 40.578 13.1054C40.7468 13.0316 40.8977 12.921 41.0198 12.7815C41.257 12.4707 41.3857 12.0886 41.3857 11.6955C41.3857 11.3023 41.257 10.9203 41.0198 10.6094C40.8981 10.4718 40.7482 10.3629 40.5806 10.2904C40.413 10.2178 40.2317 10.1834 40.0496 10.1895C39.8637 10.1836 39.6788 10.2187 39.5075 10.2924C39.3363 10.3662 39.1829 10.4768 39.058 10.6167C38.7953 10.914 38.6571 11.3036 38.6728 11.7027C38.6599 12.0979 38.795 12.4834 39.0509 12.7815C39.1761 12.921 39.3295 13.0313 39.5007 13.1051C39.6718 13.1788 39.8566 13.2141 40.0425 13.2087V13.2087Z" fill="white"/>
<path d="M49.6155 14.0125C49.008 14.5421 48.2465 14.8315 47.4608 14.8315C46.675 14.8315 45.9136 14.5421 45.3061 14.0125C44.785 13.4343 44.4941 12.6647 44.4941 11.8641C44.4941 11.0635 44.785 10.2939 45.3061 9.71569C45.9142 9.18748 46.6754 8.89893 47.4608 8.89893C48.2462 8.89893 49.0074 9.18748 49.6155 9.71569C50.1361 10.2926 50.4267 11.061 50.4267 11.8603C50.4267 12.6596 50.1361 13.428 49.6155 14.0049V14.0125ZM46.4337 13.0051C46.5714 13.1443 46.7337 13.253 46.9112 13.3251C47.0888 13.3972 47.278 13.4311 47.468 13.4248C47.6567 13.43 47.8446 13.3956 48.0208 13.3236C48.197 13.2516 48.3582 13.1434 48.495 13.0051C48.7455 12.6919 48.883 12.2942 48.883 11.8832C48.883 11.4721 48.7455 11.0745 48.495 10.7613C48.3582 10.623 48.197 10.5148 48.0208 10.4427C47.8446 10.3707 47.6567 10.3363 47.468 10.3415C47.278 10.3353 47.0888 10.3692 46.9112 10.4413C46.7337 10.5133 46.5714 10.6221 46.4337 10.7613C46.1832 11.0745 46.0457 11.4721 46.0457 11.8832C46.0457 12.2942 46.1832 12.6919 46.4337 13.0051V13.0051Z" fill="white"/>
<path d="M52.9128 7.45094C52.7115 7.61749 52.453 7.70929 52.1854 7.70929C51.9178 7.70929 51.6594 7.61749 51.458 7.45094C51.3667 7.36953 51.294 7.27135 51.2443 7.16243C51.1946 7.05351 51.1689 6.93613 51.1689 6.81751C51.1689 6.69889 51.1946 6.58152 51.2443 6.4726C51.294 6.36368 51.3667 6.2655 51.458 6.18408C51.6614 6.0217 51.9191 5.93262 52.1854 5.93262C52.4517 5.93262 52.7094 6.0217 52.9128 6.18408C53.0041 6.2655 53.0768 6.36368 53.1265 6.4726C53.1762 6.58152 53.2019 6.69889 53.2019 6.81751C53.2019 6.93613 53.1762 7.05351 53.1265 7.16243C53.0768 7.27135 53.0041 7.36953 52.9128 7.45094V7.45094ZM53.0728 14.0876C52.62 14.1086 52.1726 13.9871 51.8008 13.7421C51.6482 13.6319 51.5256 13.4888 51.4435 13.3248C51.3613 13.1608 51.3219 12.9805 51.3285 12.7991V8.88337C51.3248 8.85512 51.328 8.82644 51.3378 8.79952C51.3476 8.7726 51.3637 8.74815 51.385 8.72802C51.4063 8.70789 51.4322 8.69262 51.4607 8.68337C51.4892 8.67411 51.5195 8.67112 51.5494 8.67462H52.829C52.9737 8.67462 53.0423 8.7466 53.0423 8.88337V12.2809C53.0423 12.5544 53.1718 12.6912 53.4307 12.6912C53.5462 12.6951 53.6617 12.683 53.7735 12.6552C53.9258 12.6552 54.0096 12.6984 54.0172 12.8279L54.1315 13.7277C54.137 13.7539 54.1364 13.781 54.1299 13.807C54.1234 13.833 54.1111 13.8574 54.0938 13.8786C54.0765 13.8997 54.0546 13.9171 54.0295 13.9296C54.0045 13.942 53.9769 13.9493 53.9487 13.9508C53.6659 14.0388 53.3704 14.085 53.0728 14.0876V14.0876Z" fill="white"/>
<path d="M59.2178 8.90426C59.6252 8.8889 60.0317 8.95181 60.4132 9.08925C60.7946 9.22669 61.1433 9.43586 61.4384 9.70434C61.9874 10.2666 62.2927 11.0065 62.2927 11.7749C62.2927 12.5434 61.9874 13.2833 61.4384 13.8455C61.1447 14.1163 60.7965 14.3276 60.4148 14.4664C60.0331 14.6052 59.6259 14.6686 59.2178 14.653C58.6364 14.6653 58.0666 14.4962 57.5951 14.1714V16.8458C57.5951 16.9865 57.5174 17.0532 57.3699 17.0532H56.0655C56.0357 17.0585 56.0051 17.0568 55.9761 17.0483C55.9472 17.0397 55.9209 17.0246 55.8995 17.0042C55.8781 16.9837 55.8622 16.9586 55.8533 16.931C55.8443 16.9034 55.8425 16.8742 55.8481 16.8458V10.7711C55.8572 10.7117 55.8517 10.6511 55.8319 10.5941C55.8121 10.537 55.7786 10.4852 55.7341 10.4428C55.6896 10.4003 55.6353 10.3684 55.5756 10.3495C55.5158 10.3306 55.4523 10.3253 55.39 10.334H55.1338C54.963 10.334 54.8776 10.2748 54.8776 10.1562V9.28208C54.8735 9.22799 54.8891 9.17421 54.9216 9.12973C54.9541 9.08524 55.0016 9.05273 55.0562 9.03761C55.3247 8.94446 55.609 8.89926 55.8947 8.90426C56.1796 8.8802 56.4656 8.93785 56.716 9.06983C56.9663 9.20182 57.1697 9.40212 57.3 9.64508C57.5501 9.40369 57.8492 9.2135 58.1789 9.08613C58.5086 8.95876 58.8621 8.89687 59.2178 8.90426ZM58.0066 12.8824C58.145 13.0205 58.3113 13.1303 58.4955 13.2054C58.6796 13.2804 58.8778 13.3191 59.078 13.3191C59.2783 13.3191 59.4764 13.2804 59.6606 13.2054C59.8447 13.1303 60.011 13.0205 60.1495 12.8824C60.4411 12.5721 60.5943 12.1654 60.5765 11.749C60.5968 11.3322 60.4433 10.9246 60.1495 10.6155C60.011 10.4775 59.8447 10.3676 59.6606 10.2926C59.4764 10.2175 59.2783 10.1788 59.078 10.1788C58.8778 10.1788 58.6796 10.2175 58.4955 10.2926C58.3113 10.3676 58.145 10.4775 58.0066 10.6155C57.7241 10.9301 57.577 11.3351 57.5951 11.749C57.5793 12.1625 57.7261 12.5668 58.0066 12.8824Z" fill="white"/>
<path d="M64.9915 14.8284C64.3418 14.8565 63.6976 14.6933 63.1315 14.3574C62.9044 14.2138 62.711 14.0184 62.5657 13.7856C62.4203 13.5528 62.3268 13.2887 62.292 13.0128C62.292 12.8608 62.3427 12.7849 62.5019 12.7849H63.5658C63.6164 12.7869 63.6655 12.8036 63.7076 12.8331C63.7497 12.8626 63.7833 12.9037 63.8046 12.952C63.9566 13.3622 64.3546 13.5673 64.9915 13.5673C65.2137 13.578 65.4349 13.531 65.6357 13.4306C65.7049 13.3978 65.7644 13.3458 65.8078 13.2802C65.8511 13.2147 65.8767 13.138 65.8817 13.0583C65.8817 12.8608 65.7659 12.7241 65.5343 12.6329C65.2596 12.5369 64.9756 12.4733 64.6876 12.443C64.3463 12.4025 64.0079 12.339 63.6743 12.2531C63.35 12.176 63.055 11.9987 62.8276 11.7441C62.6936 11.571 62.595 11.3709 62.5379 11.1561C62.4807 10.9413 62.4663 10.7165 62.4955 10.4956C62.5247 10.2747 62.5969 10.0625 62.7075 9.87211C62.8182 9.68175 62.965 9.51732 63.1388 9.38906C63.6604 9.04024 64.2725 8.87033 64.8902 8.90286C65.4883 8.88163 66.08 9.03692 66.5982 9.35107C66.8071 9.47523 66.9869 9.64672 67.1246 9.85305C67.2623 10.0594 67.3545 10.2954 67.3943 10.5438C67.3943 10.6957 67.3292 10.7717 67.1989 10.7717H66.1278C66.0827 10.7745 66.0378 10.7629 65.9991 10.7385C65.9604 10.7141 65.9295 10.678 65.9107 10.6349C65.8391 10.455 65.7044 10.3109 65.5343 10.2323C65.3425 10.127 65.1283 10.0747 64.9119 10.0804C64.6998 10.0683 64.4881 10.1127 64.2967 10.2095C64.2293 10.2368 64.1712 10.2847 64.1299 10.347C64.0887 10.4093 64.0661 10.4831 64.0651 10.559C64.0698 10.6629 64.106 10.7625 64.1685 10.8431C64.2311 10.9238 64.3166 10.9813 64.4125 11.0072C64.6905 11.1171 64.9794 11.1936 65.2738 11.2351C65.6123 11.2818 65.9481 11.3478 66.2798 11.4326C66.6041 11.5097 66.8991 11.687 67.1266 11.9416C67.2482 12.0819 67.3422 12.2461 67.4031 12.4247C67.464 12.6034 67.4905 12.7929 67.4812 12.9824C67.4874 13.245 67.4287 13.5048 67.3107 13.7365C67.1928 13.9682 67.0196 14.1638 66.8081 14.3042C66.2674 14.6686 65.6337 14.8515 64.9915 14.8284V14.8284Z" fill="white"/>
<path d="M75.6385 14.4284C75.6426 14.4563 75.6415 14.4849 75.6353 14.5124C75.6291 14.5399 75.6178 14.5658 75.6022 14.5886C75.5865 14.6113 75.5668 14.6305 75.5443 14.6449C75.5217 14.6593 75.4967 14.6687 75.4707 14.6726C75.2043 14.7664 74.9264 14.8169 74.6462 14.8222C74.3689 14.8532 74.0889 14.8064 73.8332 14.6864C73.5776 14.5663 73.355 14.3771 73.1869 14.1369C72.6715 14.6153 72.0051 14.8607 71.3263 14.8222C71.0112 14.8379 70.6965 14.7822 70.4024 14.6588C70.1084 14.5353 69.8415 14.3468 69.619 14.1054C69.398 13.8525 69.2266 13.554 69.115 13.2278C69.0034 12.9016 68.954 12.5544 68.9696 12.2071V9.12735C68.9696 8.97769 69.0353 8.89893 69.1739 8.89893H70.3997C70.5383 8.89893 70.604 8.97769 70.604 9.12735V11.9708C70.5907 12.3251 70.7029 12.6715 70.9178 12.9397C71.025 13.0625 71.1554 13.1591 71.3001 13.223C71.4449 13.2868 71.6006 13.3165 71.7568 13.3099C71.9168 13.3174 72.0765 13.2907 72.2268 13.2312C72.377 13.1717 72.5149 13.0807 72.6324 12.9633C72.7436 12.8396 72.8301 12.6926 72.8866 12.5314C72.9431 12.3702 72.9683 12.1981 72.9607 12.026V9.12735C72.9607 8.97769 73.0264 8.89893 73.165 8.89893H74.4054C74.544 8.89893 74.6097 8.97769 74.6097 9.12735V12.8373C74.6097 13.1445 74.7337 13.2941 74.9745 13.2941C75.0876 13.2989 75.2007 13.2856 75.3102 13.2547C75.3377 13.2464 75.3667 13.2449 75.3949 13.2504C75.4231 13.2558 75.4498 13.2681 75.473 13.2863C75.4961 13.3045 75.5152 13.3281 75.5287 13.3554C75.5422 13.3827 75.5498 13.4129 75.5509 13.4438L75.6385 14.4284Z" fill="white"/>
<path d="M87.5 14.4471C87.5065 14.4744 87.5072 14.5029 87.5019 14.5305C87.4966 14.5582 87.4856 14.5842 87.4695 14.6068C87.4535 14.6295 87.4329 14.6481 87.4092 14.6614C87.3855 14.6747 87.3592 14.6823 87.3324 14.6837C87.0615 14.776 86.7788 14.8249 86.494 14.8288C86.0605 14.8522 85.632 14.7232 85.2765 14.4623C85.1228 14.3506 84.9978 14.2008 84.9126 14.0263C84.8274 13.8519 84.7846 13.6581 84.7881 13.4622V11.668C84.8034 11.3256 84.694 10.9899 84.4819 10.7289C84.3796 10.6095 84.2533 10.5155 84.1121 10.4534C83.9709 10.3914 83.8184 10.3629 83.6654 10.37C83.5275 10.3646 83.3902 10.392 83.264 10.4502C83.1377 10.5084 83.0257 10.5958 82.9364 10.706C82.7439 10.9618 82.6456 11.2815 82.6593 11.6069V14.4242C82.6593 14.5692 82.5937 14.6456 82.4552 14.6456H81.2231C81.1945 14.6493 81.1655 14.6461 81.1382 14.6363C81.111 14.6265 81.0862 14.6103 81.0658 14.5889C81.0454 14.5676 81.0299 14.5416 81.0206 14.5131C81.0112 14.4845 81.0082 14.4541 81.0117 14.4242V11.668C81.0276 11.3293 80.9267 10.996 80.7274 10.7289C80.6385 10.6167 80.5271 10.5263 80.4011 10.4643C80.2751 10.4023 80.1376 10.3701 79.9984 10.37C79.8497 10.3638 79.7014 10.3904 79.5632 10.4483C79.425 10.5062 79.3 10.594 79.1965 10.706C78.9879 10.9536 78.8806 11.2772 78.8976 11.6069V14.4242C78.9011 14.4541 78.8981 14.4845 78.8887 14.5131C78.8793 14.5416 78.8639 14.5676 78.8435 14.5889C78.8231 14.6103 78.7983 14.6265 78.7711 14.6363C78.7438 14.6461 78.7148 14.6493 78.6861 14.6456H77.4978C77.3593 14.6456 77.2937 14.5692 77.2937 14.4242V10.8281C77.3023 10.7669 77.2971 10.7044 77.2785 10.6457C77.2599 10.5869 77.2285 10.5335 77.1867 10.4897C77.1449 10.446 77.0939 10.4131 77.0378 10.3936C76.9817 10.3741 76.9221 10.3687 76.8636 10.3777H76.623C76.4626 10.3777 76.3824 10.3166 76.3824 10.1944V9.29352C76.3786 9.23777 76.3932 9.18236 76.4237 9.13651C76.4543 9.09066 76.4988 9.05715 76.5501 9.04157C76.8023 8.94557 77.0692 8.89898 77.3374 8.90414C77.595 8.88117 77.8535 8.93492 78.0831 9.05921C78.3127 9.18349 78.5041 9.37324 78.6351 9.60655C78.8811 9.36242 79.1724 9.17404 79.491 9.05318C79.8097 8.93232 80.1487 8.88159 80.4868 8.90414C80.8153 8.88735 81.1429 8.95188 81.4431 9.09249C81.7433 9.2331 82.0076 9.44583 82.2146 9.71344C82.4559 9.43882 82.7524 9.22376 83.0827 9.08381C83.4131 8.94385 83.7689 8.88248 84.1247 8.90414C84.4429 8.88855 84.7607 8.94224 85.0581 9.06183C85.3555 9.18141 85.626 9.3643 85.8525 9.59892C86.074 9.8436 86.2457 10.1329 86.3572 10.4492C86.4688 10.7655 86.5178 11.1022 86.5013 11.4389V12.9124C86.5013 13.2026 86.6252 13.3476 86.8585 13.3476C86.9715 13.3532 87.0846 13.3403 87.1939 13.3095C87.3445 13.3095 87.4247 13.3705 87.4344 13.4927L87.5 14.4471Z" fill="white"/>
<path d="M0.299716 7.82668C0.839034 5.59179 2.08809 3.60718 3.84799 2.18884C5.60789 0.770509 7.77745 0 10.0112 0C12.245 0 14.4146 0.770509 16.1745 2.18884C17.9344 3.60718 19.1834 5.59179 19.7228 7.82668H18.8455C17.3657 7.80422 15.9163 8.26018 14.7007 9.13054C14.6305 9.18291 14.5573 9.23073 14.4814 9.27374H14.379C14.3031 9.23073 14.2299 9.18291 14.1597 9.13054C12.9334 8.28032 11.4891 7.82622 10.0112 7.82622C8.5334 7.82622 7.08909 8.28032 5.86273 9.13054C5.79258 9.18291 5.71934 9.23073 5.64343 9.27374H5.54109C5.46518 9.23073 5.39194 9.18291 5.32178 9.13054C4.1062 8.26018 2.65674 7.80422 1.17693 7.82668H0.299716ZM17.2665 12.5522C17.7169 12.1906 18.275 12.0015 18.8455 12.0171H20.0225V9.59781H18.8455C17.8406 9.58528 16.8585 9.90779 16.0458 10.5173C15.5884 10.865 15.035 11.0525 14.4668 11.0525C13.8985 11.0525 13.3452 10.865 12.8878 10.5173C12.0544 9.91915 11.0632 9.59852 10.0478 9.59852C9.03232 9.59852 8.04121 9.91915 7.2078 10.5173C6.7504 10.865 6.19707 11.0525 5.62881 11.0525C5.06055 11.0525 4.50721 10.865 4.04982 10.5173C3.22699 9.89999 2.2309 9.57708 1.21348 9.59781H0V12.0171H1.17693C1.7475 12.0015 2.30561 12.1906 2.75592 12.5522C3.58782 13.1507 4.57783 13.4717 5.59226 13.4717C6.60669 13.4717 7.59669 13.1507 8.42859 12.5522C8.87948 12.1918 9.4372 12.0028 10.0076 12.0171C10.5783 12.0002 11.1368 12.1895 11.5866 12.5522C12.42 13.1504 13.4111 13.471 14.4266 13.471C15.442 13.471 16.4331 13.1504 17.2665 12.5522V12.5522ZM17.2665 16.8783C17.7169 16.5167 18.275 16.3276 18.8455 16.3432H20.0225V13.9239H18.8455C17.8406 13.9114 16.8585 14.2339 16.0458 14.8434C15.5884 15.191 15.035 15.3786 14.4668 15.3786C13.8985 15.3786 13.3452 15.191 12.8878 14.8434C12.0544 14.2452 11.0632 13.9246 10.0478 13.9246C9.03232 13.9246 8.04121 14.2452 7.2078 14.8434C6.7504 15.191 6.19707 15.3786 5.62881 15.3786C5.06055 15.3786 4.50721 15.191 4.04982 14.8434C3.22699 14.2261 2.2309 13.9032 1.21348 13.9239H0V16.3432H1.17693C1.7475 16.3276 2.30561 16.5167 2.75592 16.8783C3.58782 17.4768 4.57783 17.7978 5.59226 17.7978C6.60669 17.7978 7.59669 17.4768 8.42859 16.8783C8.87948 16.5178 9.4372 16.3288 10.0076 16.3432C10.5783 16.3263 11.1368 16.5156 11.5866 16.8783C12.42 17.4764 13.4111 17.7971 14.4266 17.7971C15.442 17.7971 16.4331 17.4764 17.2665 16.8783V16.8783Z" fill="white"/>
</svg>
