<svg width="88" height="21" viewBox="0 0 88 21" fill="none" xmlns="http://www.w3.org/2000/svg">
<path d="M25.2139 5.78421H27.4286V14.5603H25.2139V5.78421ZM28.3071 11.2466C28.3071 9.07613 29.6655 7.78107 31.7622 7.78107C33.8588 7.78107 35.2172 9.07613 35.2172 11.2466C35.2172 13.4171 33.8883 14.7194 31.7622 14.7194C29.636 14.7194 28.3071 13.4533 28.3071 11.2466ZM32.9951 11.2466C32.9951 10.0529 32.5152 9.35106 31.7622 9.35106C31.0092 9.35106 30.5367 10.0746 30.5367 11.2466C30.5367 12.4187 31.0018 13.1277 31.7622 13.1277C32.5226 13.1277 32.9951 12.4621 32.9951 11.2539V11.2466ZM36.0514 14.9871H38.1776C38.2788 15.2074 38.4499 15.3898 38.6653 15.5072C38.8808 15.6245 39.1292 15.6705 39.3736 15.6383C40.2152 15.6383 40.6581 15.1897 40.6581 14.5386V13.3231H40.6138C40.4374 13.6956 40.151 14.0078 39.7918 14.2193C39.4325 14.4308 39.0169 14.5319 38.5984 14.5096C36.9816 14.5096 35.9112 13.3014 35.9112 11.2249C35.9112 9.14848 36.9299 7.83895 38.6279 7.83895C39.0595 7.82237 39.486 7.93545 39.8501 8.16303C40.2143 8.39061 40.4988 8.72183 40.6655 9.11231V9.11231V7.90406H42.8803V14.4879C42.8803 16.0724 41.4554 17.0563 39.3514 17.0563C37.395 17.0563 36.1769 16.1954 36.0514 14.9944V14.9871ZM40.6655 11.2394C40.6655 10.1831 40.1709 9.51747 39.3883 9.51747C38.6058 9.51747 38.1259 10.1759 38.1259 11.2394C38.1259 12.3029 38.5984 12.9034 39.3883 12.9034C40.1783 12.9034 40.6655 12.3174 40.6655 11.2466V11.2394ZM43.7145 11.2394C43.7145 9.0689 45.0729 7.77383 47.1695 7.77383C49.2662 7.77383 50.6319 9.0689 50.6319 11.2394C50.6319 13.4099 49.3031 14.7122 47.1695 14.7122C45.036 14.7122 43.7145 13.4533 43.7145 11.2466V11.2394ZM48.4024 11.2394C48.4024 10.0456 47.9225 9.34383 47.1695 9.34383C46.4165 9.34383 45.9809 10.0746 45.9809 11.2539C45.9809 12.4332 46.446 13.135 47.1991 13.135C47.9521 13.135 48.4024 12.4621 48.4024 11.2539V11.2394ZM51.4735 6.32684C51.4677 6.10769 51.5285 5.89179 51.648 5.70651C51.7676 5.52123 51.9405 5.3749 52.1451 5.28609C52.3496 5.19727 52.5764 5.16996 52.7967 5.20762C53.0171 5.24528 53.2211 5.34622 53.3828 5.49763C53.5446 5.64904 53.6568 5.84411 53.7053 6.05812C53.7538 6.27212 53.7364 6.49542 53.6553 6.6997C53.5741 6.90398 53.4329 7.08005 53.2495 7.20559C53.0661 7.33113 52.8489 7.40048 52.6252 7.40485C52.477 7.41483 52.3282 7.39466 52.1883 7.34561C52.0484 7.29655 51.9203 7.21967 51.8122 7.11979C51.704 7.01992 51.6181 6.8992 51.5598 6.76523C51.5015 6.63126 51.4722 6.48693 51.4735 6.34131V6.32684ZM51.4735 7.91854H53.6883V14.5603H51.4735V7.91854ZM61.7279 11.2394C61.7279 13.4099 60.746 14.6471 59.0628 14.6471C58.6312 14.6742 58.2015 14.5708 57.8318 14.3509C57.4621 14.1309 57.1702 13.8049 56.9957 13.4171H56.9514V16.6873H54.7366V7.90406H56.9514V9.0906H56.9957C57.1621 8.69638 57.4484 8.36196 57.8156 8.13283C58.1828 7.9037 58.6131 7.79098 59.048 7.81001C60.746 7.83895 61.7574 9.08337 61.7574 11.2539L61.7279 11.2394ZM59.5131 11.2394C59.5131 10.1831 59.0185 9.51023 58.2433 9.51023C57.4682 9.51023 56.9735 10.1903 56.9661 11.2394C56.9588 12.2885 57.4682 12.9613 58.2433 12.9613C59.0185 12.9613 59.5131 12.3029 59.5131 11.2539V11.2394ZM65.5299 7.7666C67.3681 7.7666 68.4829 8.62033 68.5346 9.98774H66.5191C66.5191 9.51747 66.1205 9.22083 65.5077 9.22083C64.895 9.22083 64.6218 9.45235 64.6218 9.7924C64.6218 10.1324 64.8655 10.241 65.3601 10.3423L66.7775 10.6244C68.1285 10.9066 68.7044 11.442 68.7044 12.4476C68.7044 13.8223 67.4272 14.705 65.5446 14.705C63.6621 14.705 62.4292 13.8223 62.3332 12.4693H64.4668C64.5332 12.9613 64.9319 13.2507 65.5816 13.2507C66.2312 13.2507 66.5265 13.0409 66.5265 12.6936C66.5265 12.3463 66.3198 12.274 65.7883 12.1655L64.5111 11.8978C63.1896 11.6301 62.4957 10.9428 62.4957 9.92986C62.5104 8.62756 63.699 7.78107 65.5299 7.78107V7.7666ZM76.0943 14.5458H73.9607V13.3086H73.9164C73.7992 13.724 73.5404 14.0875 73.1832 14.3389C72.826 14.5903 72.3918 14.7144 71.9527 14.6905C71.6162 14.7092 71.2795 14.657 70.9654 14.5373C70.6513 14.4175 70.3671 14.2331 70.1319 13.9965C69.8968 13.7599 69.7162 13.4766 69.6024 13.1657C69.4885 12.8548 69.4441 12.5236 69.4722 12.1944V7.90406H71.6869V11.6952C71.6869 12.4838 72.1003 12.9034 72.7869 12.9034C72.9479 12.9038 73.1071 12.8704 73.2539 12.8055C73.4006 12.7406 73.5315 12.6457 73.6378 12.5271C73.744 12.4086 73.8232 12.2692 73.87 12.1182C73.9168 11.9672 73.9301 11.8082 73.9091 11.6518V7.90406H76.1238L76.0943 14.5458ZM77.1648 7.90406H79.3057V9.18466H79.35C79.4675 8.77478 79.7204 8.41467 80.0691 8.16069C80.4177 7.90671 80.8425 7.7732 81.2768 7.78107C81.7187 7.74639 82.1578 7.876 82.5066 8.14412C82.8554 8.41224 83.0885 8.79921 83.1594 9.22807H83.2037C83.3376 8.79465 83.6149 8.41722 83.9918 8.15524C84.3687 7.89326 84.8239 7.76163 85.2856 7.78107C85.5867 7.77115 85.8867 7.82345 86.1659 7.93456C86.4451 8.04567 86.6974 8.21312 86.9063 8.42601C87.1151 8.6389 87.276 8.89247 87.3783 9.17026C87.4807 9.44805 87.5222 9.74383 87.5003 10.0384V14.5603H85.2856V10.6172C85.2856 9.89369 84.9533 9.56088 84.3332 9.56088C84.1949 9.55973 84.058 9.58766 83.9316 9.64279C83.8053 9.69792 83.6925 9.77896 83.6008 9.88045C83.5092 9.98193 83.4408 10.1015 83.4003 10.2311C83.3598 10.3607 83.3481 10.4973 83.3661 10.6317V14.5603H81.2621V10.5882C81.2621 9.92263 80.9299 9.56088 80.3245 9.56088C80.1846 9.56092 80.0464 9.59002 79.9188 9.64627C79.7913 9.70251 79.6774 9.78462 79.5846 9.88717C79.4918 9.98973 79.4223 10.1104 79.3805 10.2412C79.3388 10.372 79.3259 10.51 79.3426 10.6461V14.5603H77.1278L77.1648 7.90406Z" fill="white"/>
<path d="M19.1958 6.04722C18.8203 5.18815 18.3231 4.38756 17.7197 3.67002C16.8278 2.57765 15.7147 1.68661 14.4536 1.05555C13.1926 0.424499 11.8123 0.0677344 10.4035 0.00874157C8.99467 -0.0502513 7.58935 0.189863 6.28001 0.713285C4.97066 1.23671 3.78698 2.03157 2.80687 3.04555C1.82676 4.05953 1.07244 5.26965 0.593552 6.59625C0.114668 7.92285 -0.0779208 9.33585 0.0284626 10.7423C0.134846 12.1487 0.537789 13.5166 1.21077 14.756C1.88375 15.9955 2.81151 17.0783 3.93299 17.9332C4.65259 18.4927 5.44773 18.9476 6.29475 19.2842C7.4823 19.771 8.75326 20.0218 10.0367 20.0225C12.6858 20.0166 15.2246 18.9603 17.0964 17.0852C18.9683 15.21 20.0205 12.669 20.0225 10.0191C20.0244 8.65218 19.7429 7.29976 19.1958 6.04722V6.04722ZM10.0293 2.03847C11.1818 2.03834 12.3204 2.29031 13.3653 2.77673V2.77673C13.1105 2.88685 12.8426 2.96377 12.5682 3.00559C11.6652 3.13633 10.8288 3.55565 10.1837 4.20096C9.53853 4.84626 9.11933 5.68295 8.98863 6.58614C8.93126 7.09268 8.70095 7.56391 8.33657 7.92032C7.9722 8.27673 7.49606 8.4965 6.98852 8.54253C6.08558 8.67328 5.24913 9.09259 4.60401 9.7379C3.95888 10.3832 3.53968 11.2199 3.40898 12.1231C3.36473 12.6047 3.15929 13.0573 2.82592 13.4077V13.4077C2.25073 12.1919 1.99233 10.8504 2.07479 9.50797C2.15724 8.1655 2.57786 6.86572 3.29751 5.72958C4.01716 4.59343 5.01244 3.65785 6.19074 3.0099C7.36903 2.36196 8.69205 2.0227 10.0367 2.0237L10.0293 2.03847ZM3.92561 15.1869C4.01418 15.1057 4.10275 15.0318 4.19131 14.9432C4.84792 14.3065 5.26939 13.4659 5.38695 12.5587C5.43462 12.0487 5.66224 11.5724 6.02905 11.215C6.38202 10.8475 6.85712 10.6217 7.36492 10.5801C8.26785 10.4494 9.10431 10.0301 9.74943 9.38476C10.3946 8.73945 10.8138 7.90276 10.9445 6.99957C10.9764 6.46619 11.2052 5.96367 11.5866 5.5895C11.9482 5.22911 12.4279 5.01151 12.9372 4.97674C13.7667 4.86258 14.5403 4.49371 15.1513 3.92103C15.8471 4.4984 16.4365 5.19297 16.8931 5.97339C16.8651 6.0113 16.8329 6.04597 16.7972 6.07675C16.4449 6.4475 15.9704 6.67825 15.4613 6.72642C14.5575 6.85487 13.7197 7.27345 13.0742 7.91918C12.4287 8.56491 12.0102 9.40286 11.8818 10.307C11.8298 10.8152 11.6037 11.2898 11.2419 11.6504C10.88 12.011 10.4047 12.2354 9.89643 12.2855C8.99086 12.4153 8.15129 12.8337 7.50243 13.4788C6.85357 14.1238 6.43004 14.9611 6.29475 15.8661C6.25503 16.2269 6.13116 16.5733 5.93311 16.8775C5.17587 16.4278 4.49767 15.8566 3.92561 15.1869V15.1869ZM10.0293 18.0366C9.28036 18.0374 8.53503 17.933 7.81513 17.7265C8.06139 17.2673 8.22148 16.7669 8.28748 16.25C8.33921 15.7429 8.56422 15.2691 8.92456 14.9087C9.28489 14.5482 9.75849 14.3232 10.2655 14.2714C11.1697 14.1422 12.0078 13.7235 12.6544 13.0781C13.301 12.4326 13.7213 11.5951 13.8524 10.6909C13.9041 10.1838 14.1291 9.71003 14.4894 9.34959C14.8498 8.98915 15.3234 8.76407 15.8303 8.71233C16.5108 8.62379 17.1594 8.37036 17.7197 7.97407C18.0309 9.15374 18.0677 10.389 17.8275 11.5852C17.5872 12.7813 17.0763 13.9065 16.3338 14.8744C15.5913 15.8423 14.637 16.6273 13.5442 17.169C12.4513 17.7108 11.249 17.9949 10.0293 17.9996V18.0366Z" fill="white"/>
</svg>
