<svg width="118" height="26" viewBox="0 0 118 26" fill="none" xmlns="http://www.w3.org/2000/svg">
<path d="M0 0V25.9H117.91V0H0ZM116.423 24.4389H56.1957V1.46109H116.423V24.4389Z" fill="white"/>
<path d="M6.67383 17.7601V8.88013H9.62508V15.3953H14.8311V17.7601H6.67383Z" fill="black"/>
<path d="M26.6962 13.2929C26.6962 16.0163 24.942 17.7601 20.7693 17.7601C16.9792 17.7601 14.8311 16.2565 14.8311 13.2929C14.8311 10.6667 16.8789 8.88013 20.7693 8.88013C24.7203 8.88013 26.6962 10.5252 26.6962 13.2929ZM23.6372 13.3256C23.6372 12.0919 23.1084 11.1028 20.758 11.1028C18.6098 11.1028 17.9118 11.9853 17.9118 13.3256C17.9118 14.6876 18.5522 15.5701 20.7678 15.5701C22.9976 15.5701 23.6372 14.6332 23.6372 13.3256V13.3256Z" fill="black"/>
<path d="M36.1512 17.6163L36.0728 16.7847C35.0568 17.4919 33.8202 17.8323 32.5751 17.7473C30.7034 17.7473 29.1445 17.2005 28.2703 16.0965C27.6937 15.2906 27.4025 14.3231 27.4409 13.341C27.4081 12.3796 27.7093 11.4355 28.2957 10.662C29.1804 9.59084 30.784 8.88013 33.1716 8.88013C35.9182 8.88013 37.5323 9.70007 38.2266 11.0778C38.3757 11.4023 38.4632 11.7504 38.4849 12.1053H35.5793C35.5061 11.8896 35.3698 11.6995 35.1873 11.5584C34.6085 11.1842 33.9174 11.011 33.2253 11.0669C32.8194 11.0189 32.4077 11.0555 32.0173 11.1742C31.627 11.293 31.2669 11.4912 30.961 11.7558C30.6135 12.2196 30.4504 12.7906 30.5018 13.3629C30.4616 13.9088 30.6115 14.452 30.9274 14.9045C31.2361 15.185 31.6031 15.3976 32.0035 15.5277C32.4038 15.6579 32.8281 15.7026 33.2477 15.6589C34.0812 15.725 34.9086 15.4743 35.5569 14.9591C35.6962 14.7893 35.7921 14.5896 35.8368 14.3765H32.7102V12.532H38.5611V17.6163H36.1512Z" fill="black"/>
<path d="M51.1679 13.2929C51.1679 16.0163 49.413 17.7601 45.2409 17.7601C41.4509 17.7601 39.3027 16.2565 39.3027 13.2929C39.3027 10.6667 41.3505 8.88013 45.2409 8.88013C49.189 8.88013 51.1679 10.5252 51.1679 13.2929ZM48.1089 13.3256C48.1089 12.0919 47.5801 11.1028 45.2297 11.1028C43.0815 11.1028 42.3834 11.9853 42.3834 13.3256C42.3834 14.6876 43.0246 15.5701 45.2394 15.5701C47.4685 15.5701 48.1089 14.6332 48.1089 13.3256V13.3256Z" fill="black"/>
<path d="M61.5498 17.7601V8.88013H63.7745V17.7601H61.5498Z" fill="white"/>
<path d="M75.063 14.058C74.5071 14.7804 73.5503 15.1104 72.2016 15.1186C71.9172 15.1186 68.1466 15.1073 68.1466 15.1073V17.7601H66V8.89975H72.2024C72.6995 8.8475 73.2022 8.89989 73.6776 9.05349C74.153 9.2071 74.5905 9.45848 74.9617 9.79127C75.4516 10.4259 75.69 11.2171 75.6319 12.0148C75.6819 12.7404 75.4812 13.4612 75.063 14.058V14.058ZM73.3029 11.1692C73.076 10.8309 72.5866 10.643 71.7584 10.643H68.1353V13.3401H71.7349C72.6207 13.3401 73.0874 13.1597 73.3029 12.8094C73.4311 12.5626 73.4862 12.2847 73.4618 12.0081C73.4809 11.7196 73.4263 11.431 73.3029 11.1692V11.1692Z" fill="white"/>
<path d="M81.7322 17.7601C77.6355 17.7601 76.3818 16.298 76.3818 14.8513H78.7061C78.7061 15.5648 79.7299 16.1028 81.8357 16.1028C83.9293 16.1028 84.4818 15.7512 84.4818 15.1803C84.4818 14.5435 84.068 14.3461 82.1231 14.1378C81.7399 14.1049 80.697 13.9843 80.3054 13.9295C77.5466 13.6326 76.4845 12.8534 76.4845 11.4593C76.4845 9.98839 78.0386 8.88013 81.4096 8.88013C85.0688 8.88013 86.4727 10.2523 86.4727 11.6793H84.1737C84.1737 10.9548 83.3108 10.5374 81.274 10.5374C79.1797 10.5374 78.7314 10.8115 78.7314 11.3496C78.7314 11.9096 79.1911 12.085 81.4135 12.3372C81.92 12.4038 83.0472 12.5244 83.3576 12.5566C85.7056 12.7868 86.7639 13.599 86.7639 15.037C86.76 16.7498 85.1492 17.7601 81.7322 17.7601Z" fill="white"/>
<path d="M93.0281 17.7601C90.1333 17.7601 88.2471 16.6107 88.2471 14.1939V8.88013H90.3653V14.2236C90.3653 15.3284 91.2645 16.0639 93.1168 16.0639C94.7918 16.0639 95.7907 15.373 95.7907 14.2236V8.88013H97.8875V14.3922C97.8875 16.5892 96.1342 17.7601 93.0281 17.7601Z" fill="white"/>
<path d="M108.543 17.7601V11.8326L105.895 17.7601H103.885L101.313 11.8326V17.7601H99.3701V8.88013H102.003L104.92 15.6447L107.903 8.88013H110.494V17.7601H108.543Z" fill="white"/>
</svg>
