<svg width="101" height="20" viewBox="0 0 101 20" fill="none" xmlns="http://www.w3.org/2000/svg">
<path d="M15.3789 8.21468C15.0985 8.49667 14.8837 8.837 14.7499 9.21142C14.6161 9.58584 14.5666 9.98514 14.6049 10.3809L14.5916 10.3676C14.6309 10.8334 14.5681 11.3022 14.4074 11.7412C14.2468 12.1802 13.9922 12.5789 13.6614 12.9095C13.3307 13.2401 12.9317 13.4945 12.4924 13.655C12.0531 13.8156 11.584 13.8784 11.1179 13.8391L11.1312 13.8524C10.5737 13.8005 10.0137 13.9218 9.52766 14.1996C9.0416 14.4775 8.65311 14.8984 8.41517 15.405C8.17724 15.9115 8.10143 16.4791 8.19809 17.0304C8.29474 17.5816 8.55916 18.0896 8.95529 18.4851C9.35141 18.8806 9.85997 19.1444 10.4116 19.2405C10.9632 19.3366 11.5311 19.2604 12.0378 19.0221C12.5444 18.7839 12.9653 18.3952 13.2428 17.9092C13.5204 17.4232 13.6412 16.8634 13.5888 16.3063L13.6029 16.3196C13.5636 15.8538 13.6264 15.385 13.7871 14.9459C13.9477 14.5069 14.2023 14.1082 14.533 13.7777C14.8638 13.4471 15.2628 13.1927 15.7021 13.0321C16.1414 12.8716 16.6104 12.8087 17.0765 12.8481L17.0625 12.8348C17.5179 12.8757 17.9763 12.8011 18.3952 12.6178C18.8141 12.4345 19.18 12.1485 19.4588 11.7863C19.7377 11.4242 19.9205 10.9975 19.9904 10.5458C20.0604 10.0942 20.0151 9.63225 19.8588 9.20277C19.7025 8.77329 19.4403 8.39019 19.0964 8.08897C18.7525 7.78776 18.3381 7.57817 17.8915 7.47963C17.445 7.38109 16.9808 7.3968 16.542 7.52529C16.1032 7.65379 15.7039 7.89091 15.3812 8.21468H15.3789Z" fill="white"/>
<path d="M9.77807 12.7586L9.76382 12.7451C10.1652 12.7855 10.5705 12.7363 10.9505 12.6009C11.3305 12.4654 11.6757 12.2472 11.9611 11.9621C12.2464 11.6769 12.4648 11.3319 12.6005 10.9519C12.7362 10.572 12.7858 10.1666 12.7456 9.76517L12.7599 9.77866C12.72 9.30636 12.7837 8.83105 12.9465 8.38591C13.1092 7.94076 13.3672 7.5365 13.7023 7.20135C14.0374 6.8662 14.4416 6.60822 14.8867 6.44543C15.3318 6.28264 15.8071 6.21896 16.2793 6.25883L16.2651 6.24533C16.83 6.29839 17.3975 6.17587 17.8903 5.89447C18.383 5.61308 18.777 5.18651 19.0184 4.67296C19.2599 4.1594 19.337 3.58387 19.2394 3.02484C19.1418 2.46582 18.8741 1.95053 18.4728 1.54925C18.0716 1.14797 17.5564 0.880252 16.9974 0.782598C16.4385 0.684945 15.863 0.762114 15.3495 1.00358C14.836 1.24505 14.4095 1.63906 14.1281 2.13187C13.8468 2.62468 13.7243 3.1923 13.7773 3.7573L13.7638 3.74305C13.8038 4.21538 13.7402 4.69075 13.5775 5.13596C13.4148 5.58116 13.1569 5.98548 12.8217 6.32066C12.4866 6.65584 12.0823 6.91381 11.6372 7.07656C11.192 7.2393 10.7167 7.30289 10.2444 7.26289L10.2579 7.27714C9.85655 7.23669 9.45121 7.28595 9.07121 7.42138C8.69121 7.5568 8.34605 7.77499 8.06069 8.06016C7.77533 8.34534 7.55691 8.69038 7.42122 9.07032C7.28553 9.45026 7.23596 9.85562 7.2761 10.2571L7.2626 10.2436C7.30233 10.7158 7.23857 11.1911 7.07575 11.6362C6.91294 12.0813 6.65499 12.4855 6.3199 12.8206C5.98482 13.1557 5.58067 13.4137 5.13564 13.5765C4.6906 13.7394 4.21541 13.8031 3.7432 13.7634L3.75669 13.7769C3.19176 13.7238 2.62421 13.8464 2.13146 14.1278C1.63871 14.4092 1.24475 14.8357 1.00331 15.3493C0.761868 15.8628 0.684707 16.4384 0.782349 16.9974C0.879991 17.5564 1.14768 18.0717 1.54891 18.473C1.95014 18.8743 2.46537 19.142 3.02432 19.2396C3.58328 19.3373 4.15875 19.2601 4.67224 19.0187C5.18573 18.7772 5.61224 18.3832 5.8936 17.8904C6.17496 17.3976 6.29747 16.8299 6.24442 16.2649L6.25866 16.2784C6.2188 15.8061 6.28248 15.3308 6.44525 14.8857C6.60802 14.4405 6.86596 14.0363 7.20107 13.7011C7.53618 13.366 7.94039 13.108 8.38549 12.9452C8.83058 12.7824 9.30583 12.7187 9.77807 12.7586Z" fill="white"/>
<path d="M4.64063 11.0661C4.92116 10.7841 5.13594 10.4437 5.26964 10.0692C5.40334 9.69474 5.45266 9.29536 5.41408 8.89962L5.42815 8.91293C5.38876 8.44692 5.45165 7.97793 5.61242 7.53872C5.77318 7.09951 6.02795 6.70067 6.35893 6.37005C6.68991 6.03942 7.08912 5.78499 7.52869 5.62451C7.96825 5.46404 8.43757 5.40139 8.90387 5.44095L8.88981 5.42763C9.4473 5.47983 10.0073 5.3589 10.4935 5.08135C10.9797 4.8038 11.3684 4.38314 11.6066 3.87672C11.8448 3.37031 11.9209 2.8028 11.8245 2.25158C11.7282 1.70036 11.464 1.19227 11.0681 0.796597C10.6721 0.400921 10.1637 0.136921 9.61212 0.0405989C9.06054 -0.055723 8.49266 0.0203224 7.98592 0.258364C7.47918 0.496405 7.05824 0.884854 6.78051 1.37074C6.50278 1.85663 6.38178 2.4163 6.434 2.97343L6.42068 2.96011C6.46003 3.42599 6.39717 3.89484 6.23649 4.33394C6.07581 4.77303 5.82118 5.17179 5.49037 5.50239C5.15956 5.83299 4.76053 6.08745 4.32115 6.24803C3.88177 6.40861 3.41262 6.47142 2.94644 6.4321L2.95976 6.44541C2.50426 6.40459 2.04581 6.47933 1.6269 6.66271C1.20799 6.84609 0.842178 7.13216 0.563358 7.49444C0.284538 7.85672 0.101731 8.28346 0.0318799 8.73514C-0.0379715 9.18681 0.00739127 9.6488 0.163765 10.0783C0.320139 10.5078 0.582465 10.8909 0.926433 11.1921C1.2704 11.4933 1.68488 11.7028 2.13147 11.8014C2.57805 11.8999 3.04229 11.8841 3.48117 11.7556C3.92005 11.6271 4.31936 11.3899 4.64211 11.0661H4.64063Z" fill="white"/>
<path d="M27.4385 3.70776H29.6632V14.0898H27.4385V3.70776Z" fill="white"/>
<path d="M31.1456 10.3967C31.1424 9.66271 31.3788 8.9444 31.825 8.33272C32.2712 7.72103 32.9071 7.24349 33.6521 6.96059C34.397 6.67768 35.2176 6.60213 36.0099 6.74352C36.8021 6.8849 37.5304 7.23685 38.1024 7.7548C38.6745 8.27274 39.0645 8.93337 39.2232 9.653C39.3819 10.3726 39.3021 11.1189 38.9939 11.7973C38.6857 12.4756 38.1629 13.0556 37.4919 13.4637C36.8208 13.8717 36.0316 14.0896 35.2242 14.0896C34.6883 14.0951 34.1565 14.0035 33.66 13.8201C33.1635 13.6366 32.7121 13.3651 32.3324 13.0212C31.9527 12.6774 31.6521 12.2682 31.4483 11.8176C31.2446 11.3669 31.1417 10.8839 31.1456 10.3967ZM36.9942 10.3967C36.9846 10.0803 36.8726 9.77354 36.6722 9.51472C36.4718 9.25591 36.192 9.05654 35.8677 8.94152C35.5433 8.8265 35.1889 8.80095 34.8487 8.86805C34.5084 8.93516 34.1975 9.09194 33.9548 9.31881C33.7121 9.54568 33.5483 9.83256 33.4839 10.1436C33.4195 10.4546 33.4575 10.776 33.5929 11.0675C33.7284 11.3591 33.9554 11.6078 34.2455 11.7827C34.5357 11.9577 34.8761 12.0509 35.2242 12.0509C35.4627 12.0567 35.6998 12.0175 35.9207 11.9358C36.1417 11.8541 36.3416 11.7317 36.5079 11.5763C36.6742 11.4209 36.8033 11.2358 36.8869 11.0328C36.9706 10.8298 37.0072 10.6132 36.9942 10.3967Z" fill="white"/>
<path d="M48.2022 6.87773V13.6412C48.2022 16.0343 46.2162 17.0459 44.2003 17.0459C43.4905 17.0959 42.7798 16.9611 42.1461 16.6565C41.5125 16.3519 40.9803 15.8892 40.608 15.3191L42.5481 14.265C42.7046 14.5622 42.9539 14.8073 43.2627 14.9677C43.5715 15.128 43.9251 15.1959 44.2761 15.1622C44.5004 15.1915 44.7289 15.1729 44.9445 15.1079C45.1602 15.043 45.3575 14.9333 45.522 14.7869C45.6864 14.6406 45.8138 14.4614 45.8946 14.2626C45.9754 14.0638 46.0076 13.8504 45.9888 13.6383V12.9871C45.7225 13.2933 45.3836 13.5366 44.9992 13.6974C44.6148 13.8582 44.1957 13.9321 43.7754 13.9132C42.7753 13.8835 41.8268 13.4893 41.1305 12.8141C40.4343 12.1388 40.0449 11.2354 40.0449 10.2951C40.0449 9.35477 40.4343 8.45137 41.1305 7.77609C41.8268 7.1008 42.7753 6.70662 43.7754 6.67698C44.1957 6.65803 44.6148 6.73192 44.9992 6.89274C45.3836 7.05356 45.7225 7.29682 45.9888 7.603V6.87629L48.2022 6.87773ZM45.9896 10.2961C46.0048 9.95176 45.9101 9.61095 45.7175 9.31758C45.525 9.02422 45.2434 8.79173 44.909 8.65003C44.5747 8.50832 44.2029 8.4639 43.8414 8.52247C43.48 8.58105 43.1454 8.73993 42.8809 8.97869C42.6163 9.21744 42.4339 9.52513 42.357 9.86216C42.2801 10.1992 42.3123 10.5501 42.4494 10.8698C42.5865 11.1895 42.8224 11.4633 43.1265 11.656C43.4306 11.8487 43.7891 11.9515 44.1559 11.951C44.3948 11.9667 44.6346 11.9352 44.8597 11.8585C45.0849 11.7818 45.2905 11.6616 45.4632 11.5057C45.6359 11.3498 45.772 11.1616 45.8627 10.9533C45.9533 10.745 45.9966 10.5211 45.9896 10.2961Z" fill="white"/>
<path d="M48.9435 10.3967C48.9402 9.66271 49.1767 8.9444 49.6229 8.33272C50.0691 7.72103 50.7049 7.24349 51.4499 6.96059C52.1949 6.67768 53.0155 6.60213 53.8077 6.74352C54.6 6.8849 55.3282 7.23685 55.9003 7.7548C56.4723 8.27274 56.8624 8.93337 57.0211 9.653C57.1798 10.3726 57.1 11.1189 56.7918 11.7973C56.4836 12.4756 55.9608 13.0556 55.2897 13.4637C54.6187 13.8717 53.8294 14.0896 53.0221 14.0896C52.4861 14.0951 51.9544 14.0035 51.4578 13.8201C50.9613 13.6366 50.51 13.3651 50.1302 13.0212C49.7505 12.6774 49.45 12.2682 49.2462 11.8176C49.0424 11.3669 48.9395 10.8839 48.9435 10.3967ZM54.792 10.3967C54.7824 10.0803 54.6704 9.77354 54.4701 9.51472C54.2697 9.25591 53.9898 9.05654 53.6655 8.94152C53.3412 8.8265 52.9867 8.80095 52.6465 8.86805C52.3063 8.93516 51.9954 9.09194 51.7526 9.31881C51.5099 9.54568 51.3461 9.83256 51.2818 10.1436C51.2174 10.4546 51.2553 10.776 51.3908 11.0675C51.5262 11.3591 51.7532 11.6078 52.0434 11.7827C52.3335 11.9577 52.6739 12.0509 53.0221 12.0509C53.2605 12.0567 53.4977 12.0175 53.7186 11.9358C53.9395 11.8541 54.1394 11.7317 54.3057 11.5763C54.472 11.4209 54.6011 11.2358 54.6848 11.0328C54.7685 10.8298 54.805 10.6132 54.792 10.3967Z" fill="white"/>
<path d="M57.8428 4.99837C57.8428 4.74311 57.9298 4.49359 58.0927 4.28135C58.2557 4.06911 58.4873 3.90369 58.7583 3.80601C59.0294 3.70832 59.3276 3.68276 59.6153 3.73256C59.903 3.78236 60.1672 3.90528 60.3747 4.08577C60.5821 4.26627 60.7233 4.49623 60.7806 4.74658C60.8378 4.99693 60.8084 5.25643 60.6962 5.49226C60.5839 5.72808 60.3938 5.92965 60.1499 6.07146C59.906 6.21327 59.6193 6.28897 59.3259 6.28897C58.9338 6.28557 58.5588 6.14851 58.2815 5.90721C58.0042 5.6659 57.8467 5.3396 57.8428 4.99837ZM58.0925 6.91978H60.5652V14.0898H58.0891L58.0925 6.91978Z" fill="white"/>
<path d="M69.7028 10.5155C69.729 10.9959 69.6561 11.4765 69.488 11.9297C69.32 12.3828 69.0602 12.7997 68.7236 13.1563C68.387 13.5128 67.9803 13.802 67.5268 14.0073C67.0733 14.2125 66.5819 14.3297 66.081 14.3522C65.6598 14.3743 65.2387 14.3061 64.8483 14.1527C64.4579 13.9993 64.108 13.7645 63.8239 13.4654V17.0561H61.5508V6.88148H63.8239V7.56424C64.1081 7.26528 64.4581 7.03068 64.8485 6.87742C65.2388 6.72416 65.6599 6.65609 66.081 6.67812C66.582 6.70049 67.0735 6.81767 67.5271 7.02293C67.9807 7.22819 68.3875 7.51747 68.7241 7.87413C69.0608 8.23078 69.3205 8.64777 69.4885 9.10109C69.6564 9.55441 69.7292 10.0351 69.7028 10.5155ZM67.4296 10.5155C67.4207 10.1754 67.3074 9.8453 67.104 9.5666C66.9005 9.2879 66.6158 9.07296 66.2856 8.94868C65.9553 8.82441 65.5942 8.79632 65.2475 8.86793C64.9007 8.93954 64.5836 9.10767 64.336 9.35127C64.0883 9.59488 63.921 9.90314 63.8551 10.2375C63.7892 10.5718 63.8276 10.9174 63.9654 11.2309C64.1032 11.5444 64.3344 11.812 64.63 12.0001C64.9256 12.1882 65.2724 12.2886 65.6272 12.2885C65.8707 12.2989 66.1138 12.2598 66.3404 12.1738C66.5671 12.0878 66.7723 11.9567 66.9425 11.7893C67.1127 11.6219 67.244 11.4219 67.328 11.2024C67.4119 10.9829 67.4466 10.7488 67.4296 10.5155Z" fill="white"/>
<path d="M76.3818 11.7781C76.3818 13.3904 74.9798 14.0773 73.4651 14.0773C72.8531 14.1327 72.2386 14.0033 71.7009 13.7059C71.1633 13.4085 70.7272 12.9568 70.4492 12.409L72.2721 11.3717C72.3458 11.6248 72.5042 11.8451 72.7208 11.9956C72.9374 12.1461 73.1991 12.2178 73.4623 12.1987C73.9667 12.1987 74.2196 12.0444 74.2196 11.7647C74.2196 10.9928 70.7687 11.4 70.7687 8.97478C70.7687 7.44601 72.0595 6.67561 73.5182 6.67561C74.0666 6.65826 74.6096 6.78826 75.0906 7.05204C75.5715 7.31583 75.9729 7.70374 76.2529 8.17534L74.4576 9.1426C74.3789 8.95898 74.2479 8.80258 74.0808 8.69291C73.9138 8.58323 73.7181 8.52513 73.5182 8.52585C73.1534 8.52585 72.9288 8.66747 72.9288 8.91813C72.9316 9.71757 76.3818 9.18438 76.3818 11.7781Z" fill="white"/>
<path d="M85.281 6.67407V13.8823H82.9626V13.2044C82.6952 13.5035 82.3555 13.7392 81.9715 13.8921C81.5874 14.045 81.17 14.1108 80.7535 14.084C79.1923 14.084 77.8652 13.0464 77.8652 11.0988V6.67407H80.1836V10.782C80.1642 10.9537 80.1852 11.1273 80.245 11.2906C80.3048 11.454 80.4021 11.6032 80.53 11.728C80.658 11.8527 80.8135 11.9499 80.9858 12.0129C81.1581 12.0759 81.3431 12.1031 81.5278 12.0926C82.3779 12.0926 82.9649 11.6317 82.9649 10.608V6.67626L85.281 6.67407Z" fill="white"/>
<path d="M97.1461 9.66519V14.0898H94.9212V9.85228C94.9212 9.13159 94.5654 8.67078 93.8537 8.67078C93.1121 8.67078 92.6963 9.17527 92.6963 10.0255V14.0898H90.4722V9.85228C90.4722 9.13159 90.1164 8.67078 89.404 8.67078C88.6623 8.67078 88.2473 9.17527 88.2473 10.0255V14.0898H86.0225V6.88288H88.2473V7.54534C88.478 7.25144 88.7807 7.01838 89.1278 6.86744C89.475 6.71649 89.8556 6.65248 90.2347 6.68123C90.6154 6.66314 90.9945 6.7412 91.3349 6.90782C91.6753 7.07444 91.9655 7.32393 92.1772 7.63197C92.4237 7.30971 92.7503 7.05347 93.1264 6.8872C93.5026 6.72094 93.9159 6.65007 94.3279 6.68123C96.0306 6.68196 97.1461 7.86346 97.1461 9.66519Z" fill="white"/>
<path d="M98.6286 6.67406C99.4478 6.67406 100.112 6.01003 100.112 5.19091C100.112 4.37179 99.4478 3.70776 98.6286 3.70776C97.8095 3.70776 97.1455 4.37179 97.1455 5.19091C97.1455 6.01003 97.8095 6.67406 98.6286 6.67406Z" fill="white"/>
</svg>
