<svg width="92" height="21" viewBox="0 0 92 21" fill="none" xmlns="http://www.w3.org/2000/svg">
<path d="M19.4528 7.41577C19.7059 7.41577 19.7902 7.5116 19.7902 7.7696V13.6078H22.6511C22.8971 13.6078 22.9885 13.7037 22.9885 13.9617V14.4777C22.9885 14.7357 22.8971 14.8315 22.6511 14.8315H18.8835C18.6375 14.8315 18.5391 14.7357 18.5391 14.4777V7.7696C18.5391 7.5116 18.6375 7.41577 18.8835 7.41577H19.4528Z" fill="white"/>
<path d="M25.9551 10.0339C25.9551 8.39935 27.0378 7.41577 28.9214 7.41577C30.805 7.41577 31.8877 8.39935 31.8877 10.0339V12.2134C31.8877 13.8479 30.7975 14.8315 28.9214 14.8315C27.0452 14.8315 25.9551 13.8479 25.9551 12.2134V10.0339ZM30.6418 10.0339C30.6418 9.11403 30.0411 8.61871 28.9584 8.61871C27.8758 8.61871 27.2825 9.12111 27.2825 10.0339V12.2275C27.2825 13.1545 27.8758 13.6427 28.9584 13.6427C30.0411 13.6427 30.6418 13.1332 30.6418 12.2275V10.0339Z" fill="white"/>
<path d="M41.1744 10.0678C41.4614 10.0678 41.5277 10.1597 41.5277 10.4072V11.7505C41.5355 12.0669 41.4694 12.3809 41.3345 12.6696C41.1995 12.9583 40.9989 13.2144 40.7475 13.4189C40.1232 13.8965 39.336 14.1334 38.5396 14.0835C36.6334 14.0835 35.5957 13.1008 35.5957 11.4677V9.27601C35.5957 7.66409 36.6702 6.67432 38.5396 6.67432C40.0116 6.67432 40.9683 7.23283 41.3731 8.34987C41.3958 8.39184 41.4079 8.4383 41.4086 8.48557C41.4093 8.53284 41.3984 8.5796 41.377 8.62216C41.3556 8.66471 41.3241 8.70187 41.2851 8.73069C41.2461 8.75952 41.2006 8.77921 41.1523 8.7882L40.5783 8.97908C40.328 9.06392 40.225 9.01443 40.1367 8.76699C40.0148 8.46501 39.7915 8.21069 39.5023 8.04424C39.2131 7.87778 38.8743 7.8087 38.5396 7.84791C37.4577 7.84791 36.8689 8.34987 36.8689 9.26187V11.5101C36.8689 12.4362 37.4651 12.924 38.5396 12.924C39.6141 12.924 40.2765 12.4504 40.2765 11.7575V11.2344H38.6794C38.4145 11.2344 38.3188 11.1354 38.3188 10.8879V10.4072C38.3188 10.1597 38.4145 10.0678 38.6794 10.0678H41.1744Z" fill="white"/>
<path d="M44.4941 10.0339C44.4941 8.39935 45.5768 7.41577 47.4604 7.41577C49.344 7.41577 50.4267 8.39935 50.4267 10.0339V12.2134C50.4267 13.8479 49.3366 14.8315 47.4604 14.8315C45.5843 14.8315 44.4941 13.8479 44.4941 12.2134V10.0339ZM49.1735 10.0339C49.1735 9.11403 48.5728 8.61871 47.4975 8.61871C46.4222 8.61871 45.8141 9.12111 45.8141 10.0339V12.2275C45.8141 13.1545 46.4148 13.6427 47.4975 13.6427C48.5802 13.6427 49.1735 13.1332 49.1735 12.2275V10.0339Z" fill="white"/>
<path d="M54.1348 7.62955C54.1348 7.46737 54.1857 7.41577 54.3456 7.41577H54.68C54.84 7.41577 54.8763 7.46737 54.8763 7.62955V14.6177C54.8763 14.7799 54.8763 14.8315 54.68 14.8315H54.3456C54.1857 14.8315 54.1348 14.7799 54.1348 14.6177V7.62955Z" fill="white"/>
<path d="M61.4985 7.41577C62.1023 7.41577 62.6813 7.65964 63.1082 8.09372C63.5351 8.5278 63.775 9.11654 63.775 9.73042C63.775 10.3443 63.5351 10.933 63.1082 11.3671C62.6813 11.8012 62.1023 12.0451 61.4985 12.0451H59.3235V14.6177C59.3235 14.7799 59.2872 14.8315 59.135 14.8315H58.7942C58.642 14.8315 58.584 14.7799 58.584 14.6177V7.62955C58.584 7.46737 58.642 7.41577 58.7942 7.41577H61.4985ZM61.4332 11.3153C61.6408 11.3153 61.8463 11.2737 62.0381 11.193C62.2298 11.1122 62.4041 10.9938 62.5508 10.8446C62.6976 10.6954 62.814 10.5182 62.8934 10.3233C62.9729 10.1283 63.0137 9.91934 63.0137 9.70831C63.0137 9.49728 62.9729 9.28831 62.8934 9.09334C62.814 8.89837 62.6976 8.72122 62.5508 8.572C62.4041 8.42278 62.2298 8.30441 62.0381 8.22365C61.8463 8.14289 61.6408 8.10132 61.4332 8.10132H59.2582V11.3153H61.4332Z" fill="white"/>
<path d="M69.6871 6.69119C70.2797 6.62521 70.8776 6.75382 71.392 7.05791C71.9063 7.362 72.3098 7.82535 72.5423 8.37914C72.6038 8.50303 72.5424 8.60369 72.4195 8.66563L72.0818 8.82049C71.9437 8.87469 71.8899 8.86695 71.8055 8.71983C71.6316 8.30883 71.3326 7.96427 70.9518 7.73599C70.571 7.50772 70.1281 7.40756 69.6871 7.45C68.3899 7.45 67.6838 7.96877 67.6838 8.89792C67.6763 9.18188 67.7708 9.45901 67.9499 9.67816C68.1291 9.89732 68.3808 10.0437 68.6586 10.0903C69.0714 10.2261 69.4994 10.3094 69.9327 10.3381C70.4572 10.3663 70.9746 10.4733 71.4678 10.6556C71.8459 10.7762 72.1713 11.0245 72.3894 11.3587C72.6074 11.6929 72.7048 12.0926 72.6652 12.4906C72.6652 13.9386 71.6213 14.8135 69.7024 14.8135C69.073 14.8861 68.438 14.739 67.9031 14.3966C67.3681 14.0543 66.9657 13.5373 66.7627 12.932C66.7492 12.9044 66.7418 12.8741 66.7413 12.8433C66.7407 12.8125 66.7468 12.782 66.7593 12.7539C66.7717 12.7258 66.7902 12.7008 66.8134 12.6807C66.8365 12.6606 66.8638 12.646 66.8932 12.6377L67.2309 12.5139C67.2575 12.5029 67.2861 12.4976 67.3148 12.4984C67.3435 12.4992 67.3718 12.506 67.3978 12.5184C67.4238 12.5307 67.4469 12.5484 67.4658 12.5703C67.4846 12.5922 67.4987 12.6178 67.5072 12.6455C67.6789 13.0829 67.9843 13.4538 68.379 13.7044C68.7737 13.955 69.2372 14.0723 69.7024 14.0392C71.1531 14.0392 71.8669 13.5282 71.8669 12.4906C71.8804 12.2179 71.7976 11.9492 71.6332 11.7322C71.4687 11.5153 71.2333 11.3643 70.9689 11.306C70.5717 11.1865 70.1622 11.1137 69.7485 11.0892L68.9195 10.9808C68.6601 10.9252 68.4039 10.8554 68.152 10.7717C67.9032 10.6959 67.6712 10.5723 67.4689 10.4078C67.2653 10.2218 67.1047 9.99289 66.9986 9.73731C66.8925 9.48173 66.8434 9.20574 66.8548 8.92889C66.9085 7.57388 67.914 6.69119 69.6871 6.69119Z" fill="white"/>
<path d="M76.4425 12.2104C76.4756 12.721 76.7176 13.2007 77.1192 13.5514C77.5207 13.9021 78.0515 14.0974 78.603 14.0974C79.1546 14.0974 79.6853 13.9021 80.0869 13.5514C80.4884 13.2007 80.7304 12.721 80.7635 12.2104V7.62517C80.7635 7.46632 80.818 7.41577 80.9893 7.41577H81.3474C81.5187 7.41577 81.5732 7.46632 81.5732 7.62517V12.2031C81.5732 13.8423 80.5299 14.8315 78.6069 14.8315C76.6839 14.8315 75.6406 13.8423 75.6406 12.2031V7.62517C75.6406 7.46632 75.6951 7.41577 75.8586 7.41577H76.2245C76.388 7.41577 76.4425 7.46632 76.4425 7.62517V12.2104Z" fill="white"/>
<path d="M91.7432 7.41704C91.9042 7.41704 91.9554 7.46864 91.9554 7.63078V14.6178C91.9554 14.7799 91.9042 14.8315 91.7432 14.8315H91.4358C91.2821 14.8315 91.2309 14.7799 91.2309 14.6178V10.3651C91.2308 9.74637 91.2723 9.12831 91.3553 8.51521H91.3114C91.0828 9.07587 90.8163 9.62008 90.5137 10.144L88.9403 12.9374C88.9211 12.9858 88.8877 13.0273 88.8446 13.0562C88.8015 13.0851 88.7506 13.1002 88.6988 13.0995H88.4939C88.4413 13.0998 88.3897 13.0845 88.3455 13.0558C88.3013 13.027 88.2664 12.9858 88.2451 12.9374L86.6498 10.1146C86.3664 9.59809 86.1218 9.06102 85.9179 8.50784H85.874C85.949 9.12658 85.9881 9.74919 85.9911 10.3725V14.6178C85.9911 14.7799 85.9399 14.8315 85.7789 14.8315H85.4935C85.3325 14.8315 85.2812 14.7799 85.2812 14.6178V7.63078C85.2812 7.46864 85.3325 7.41704 85.4935 7.41704H85.7569C85.8171 7.41139 85.8776 7.42466 85.93 7.45501C85.9824 7.48536 86.0242 7.53132 86.0497 7.58656L88.611 12.1708L91.1577 7.63078C91.2382 7.47601 91.2821 7.45389 91.4431 7.45389L91.7432 7.41704Z" fill="white"/>
<path d="M6.57025 12.9657V18.235C6.57025 18.437 6.48739 18.6308 6.3399 18.7736C6.1924 18.9164 5.99236 18.9967 5.78378 18.9967C5.57519 18.9967 5.37515 18.9164 5.22766 18.7736C5.08016 18.6308 4.9973 18.437 4.9973 18.235V12.973C5.21628 13.1278 5.47884 13.2143 5.74991 13.2208C6.04541 13.2289 6.3349 13.1389 6.57025 12.9657ZM13.2684 11.4425C13.0688 11.4425 12.8774 11.5192 12.7363 11.6559C12.5951 11.7926 12.5158 11.978 12.5158 12.1713V13.0896C12.5158 13.2916 12.5987 13.4853 12.7462 13.6281C12.8937 13.771 13.0937 13.8512 13.3023 13.8512C13.5109 13.8512 13.7109 13.771 13.8584 13.6281C14.0059 13.4853 14.0888 13.2916 14.0888 13.0896V12.2077C14.0946 12.1032 14.0772 11.9987 14.0376 11.9013C13.998 11.8039 13.9372 11.7159 13.8594 11.6433C13.7816 11.5707 13.6885 11.5152 13.5865 11.4805C13.4846 11.4459 13.3761 11.4329 13.2684 11.4425ZM3.28889 14.9626C3.01808 14.9548 2.75592 14.8685 2.53628 14.7148V19.9988C2.53628 20.2017 2.61954 20.3964 2.76774 20.5399C2.91593 20.6834 3.11693 20.764 3.32652 20.764C3.5361 20.764 3.7371 20.6834 3.8853 20.5399C4.0335 20.3964 4.11675 20.2017 4.11675 19.9988V14.7513C3.87099 14.9051 3.58102 14.9792 3.28889 14.9626ZM10.8149 9.86092C10.713 9.85597 10.6111 9.87117 10.5154 9.90558C10.4197 9.93998 10.3322 9.99288 10.2583 10.0611C10.1844 10.1292 10.1255 10.2113 10.0854 10.3021C10.0452 10.393 10.0246 10.4909 10.0247 10.5897V14.6493C10.0247 14.8522 10.108 15.0469 10.2562 15.1904C10.4044 15.3339 10.6054 15.4145 10.8149 15.4145C11.0245 15.4145 11.2255 15.3339 11.3737 15.1904C11.5219 15.0469 11.6052 14.8522 11.6052 14.6493V10.6408C11.6112 10.5356 11.5936 10.4304 11.5536 10.3324C11.5135 10.2345 11.4521 10.1461 11.3734 10.0734C11.2947 10.0006 11.2007 9.94526 11.0978 9.91111C10.9949 9.87695 10.8855 9.8648 10.7773 9.87549L10.8149 9.86092ZM8.31629 11.4206C8.03282 11.4187 7.75686 11.3322 7.52606 11.1728V16.4713C7.52606 16.6743 7.60931 16.8689 7.75751 17.0124C7.90571 17.1559 8.10671 17.2366 8.31629 17.2366C8.52588 17.2366 8.72688 17.1559 8.87507 17.0124C9.02327 16.8689 9.10653 16.6743 9.10653 16.4713V11.1801C8.86777 11.3523 8.5763 11.4421 8.27866 11.4352L8.31629 11.4206ZM1.58047 15.4801V0.677801C1.57849 0.49737 1.50308 0.324984 1.37062 0.198077C1.23817 0.0711698 1.05935 -1.02098e-05 0.873024 1.09842e-09H0.70745C0.521119 -1.02098e-05 0.342308 0.0711698 0.20985 0.198077C0.0773919 0.324984 0.00198224 0.49737 0 0.677801V15.4801C0 15.6618 0.074535 15.8361 0.207207 15.9645C0.33988 16.093 0.519823 16.1652 0.70745 16.1652H0.873024C1.06065 16.1652 1.24059 16.093 1.37327 15.9645C1.50594 15.8361 1.58047 15.6618 1.58047 15.4801ZM3.37167 14.4015H3.2061C3.01847 14.4015 2.83853 14.3293 2.70586 14.2008C2.57319 14.0723 2.49865 13.8981 2.49865 13.7164V2.44154C2.50063 2.26111 2.57604 2.08872 2.7085 1.96182C2.84096 1.83491 3.01977 1.76373 3.2061 1.76374H3.37167C3.55801 1.76373 3.73682 1.83491 3.86927 1.96182C4.00173 2.08872 4.07714 2.26111 4.07912 2.44154V13.7309C4.07912 13.9126 4.00459 14.0869 3.87192 14.2154C3.73924 14.3439 3.5593 14.416 3.37167 14.416V14.4015ZM5.8628 12.6669H5.6897C5.50407 12.6669 5.32604 12.5955 5.19478 12.4683C5.06352 12.3412 4.98978 12.1688 4.98978 11.9891V4.19071C4.98878 4.10109 5.00615 4.01216 5.04088 3.92909C5.07561 3.84601 5.12701 3.77043 5.1921 3.70671C5.25719 3.643 5.33469 3.59242 5.4201 3.5579C5.50551 3.52338 5.59715 3.50561 5.6897 3.50562H5.8628C6.04912 3.50754 6.22713 3.58056 6.35818 3.70884C6.48923 3.83711 6.56273 4.01027 6.56272 4.19071V11.9891C6.56272 12.1688 6.48898 12.3412 6.35772 12.4683C6.22646 12.5955 6.04843 12.6669 5.8628 12.6669ZM8.35393 10.8813H8.19588C8.00955 10.8813 7.83074 10.8101 7.69828 10.6832C7.56582 10.5563 7.49041 10.3839 7.48843 10.2035V6.00547C7.48225 5.91189 7.49597 5.81808 7.52874 5.72985C7.56152 5.64161 7.61265 5.56083 7.67897 5.49251C7.74529 5.42419 7.82538 5.36978 7.9143 5.33265C8.00321 5.29552 8.09905 5.27646 8.19588 5.27665H8.36145C8.54908 5.27665 8.72902 5.34883 8.86169 5.4773C8.99436 5.60578 9.0689 5.78004 9.0689 5.96174V10.1889C9.06989 10.2795 9.05233 10.3693 9.01722 10.4533C8.98212 10.5373 8.93016 10.6136 8.86437 10.678C8.79858 10.7424 8.72026 10.7935 8.63393 10.8284C8.5476 10.8633 8.45499 10.8813 8.36145 10.8813H8.35393ZM10.8526 9.3143H10.687C10.4994 9.3143 10.3194 9.24212 10.1868 9.11364C10.0541 8.98516 9.97955 8.81091 9.97955 8.62921V7.54327C9.98154 7.36284 10.0569 7.19045 10.1894 7.06355C10.3219 6.93664 10.5007 6.86546 10.687 6.86547H10.8526C11.0389 6.86546 11.2177 6.93664 11.3502 7.06355C11.4826 7.19045 11.558 7.36284 11.56 7.54327V8.62921C11.56 8.80965 11.4865 8.98281 11.3555 9.11109C11.2244 9.23936 11.0464 9.31238 10.8601 9.3143H10.8526Z" fill="white"/>
</svg>
