<svg width="155" height="154" viewBox="0 0 155 154" fill="none" xmlns="http://www.w3.org/2000/svg">
<path d="M69.986 146.353L69.2341 151.574L67.0819 151.266C66.7208 151.215 66.4108 151.106 66.1523 150.94C65.889 150.774 65.6958 150.556 65.5719 150.285C65.4479 150.014 65.4124 149.697 65.4648 149.332C65.5159 148.978 65.642 148.686 65.8423 148.457C66.0422 148.232 66.2891 148.077 66.584 147.991L65.6882 145.738L66.9118 145.913L67.7019 147.957L68.623 148.089L68.8957 146.196L69.986 146.353ZM68.4871 149.035L67.4176 148.882C67.188 148.849 66.9957 148.889 66.8407 149C66.6813 149.111 66.5862 149.274 66.5551 149.489C66.5236 149.708 66.5685 149.894 66.6906 150.045C66.8079 150.195 66.9811 150.286 67.2111 150.319L68.2801 150.472L68.4871 149.035Z" fill="white"/>
<path d="M62.6416 145.13L61.3679 150.25L57.9121 149.397L58.1431 148.469L60.5298 149.058L60.8185 147.897L58.5699 147.341L58.8008 146.414L61.0494 146.969L61.3417 145.794L58.9549 145.204L59.193 144.278L62.6416 145.13Z" fill="white"/>
<path d="M56.6715 143.543L53.2308 147.936L51.8545 147.46L51.8851 141.887L52.9861 142.268L52.9675 143.401L54.8808 144.062L55.5705 143.162L56.6715 143.543ZM54.271 144.863L52.9484 144.406L52.9026 146.653L54.271 144.863Z" fill="white"/>
<path d="M50.5588 141.303L48.3604 146.102L46.7895 145.387C46.2681 145.15 45.8626 144.841 45.5735 144.46C45.2844 144.08 45.1169 143.661 45.0707 143.205C45.025 142.748 45.1085 142.288 45.3208 141.824C45.5331 141.36 45.8289 140.994 46.2073 140.725C46.5834 140.46 47.0107 140.312 47.4886 140.28C47.9664 140.248 48.4665 140.352 48.9879 140.589L50.5588 141.303ZM49.1585 141.717L48.5638 141.446C48.2489 141.303 47.9491 141.242 47.6636 141.263C47.3762 141.287 47.1177 141.385 46.8886 141.556C46.6532 141.729 46.4644 141.97 46.3227 142.28C46.1793 142.593 46.1198 142.893 46.1451 143.179C46.1655 143.464 46.2614 143.72 46.4329 143.948C46.6043 144.177 46.8472 144.363 47.1617 144.506L47.7568 144.776L49.1585 141.717Z" fill="white"/>
<path d="M39.0629 135.017C39.3967 135.233 39.6692 135.491 39.8805 135.79C40.0917 136.09 40.2376 136.412 40.318 136.757C40.3919 137.103 40.3981 137.453 40.3368 137.808C40.2754 138.162 40.1389 138.501 39.9274 138.826C39.7158 139.151 39.4622 139.414 39.1663 139.617C38.8666 139.817 38.5443 139.952 38.1996 140.021C37.8509 140.089 37.4961 140.087 37.1352 140.016C36.7743 139.947 36.425 139.802 36.0873 139.584C35.7495 139.365 35.475 139.106 35.2637 138.806C35.0525 138.506 34.9086 138.185 34.8322 137.843C34.7517 137.498 34.7442 137.15 34.8096 136.798C34.8709 136.444 35.0074 136.105 35.2189 135.78C35.4305 135.455 35.6861 135.193 35.9859 134.993C36.2857 134.793 36.6112 134.657 36.9625 134.587C37.3072 134.517 37.6601 134.517 38.0209 134.587C38.3818 134.658 38.7292 134.801 39.0629 135.017ZM38.5212 135.848C38.251 135.673 37.9686 135.578 37.6741 135.562C37.373 135.547 37.09 135.609 36.8249 135.747C36.5559 135.882 36.3285 136.093 36.1427 136.378C35.957 136.663 35.8568 136.955 35.842 137.255C35.8233 137.553 35.8832 137.833 36.0218 138.098C36.1564 138.359 36.3588 138.577 36.629 138.752C36.8992 138.927 37.1835 139.023 37.482 139.042C37.7765 139.058 38.0583 138.999 38.3274 138.863C38.5925 138.725 38.8178 138.514 39.0036 138.228C39.1893 137.943 39.2915 137.652 39.3102 137.355C39.325 137.055 39.2663 136.772 39.1343 136.506C38.9958 136.242 38.7914 136.023 38.5212 135.848Z" fill="white"/>
<path d="M29.9697 134.97L29.1064 134.288L31.1453 131.724C31.3895 131.417 31.6807 131.195 32.0189 131.059C32.3571 130.922 32.7117 130.883 33.0826 130.941C33.4499 130.996 33.8043 131.159 34.1458 131.428C34.4837 131.695 34.7234 132.002 34.8649 132.348C35.0063 132.695 35.0491 133.048 34.9931 133.407C34.937 133.766 34.7869 134.1 34.5427 134.407L32.5039 136.97L31.6406 136.289L33.6794 133.725C33.8854 133.466 33.9755 133.197 33.9498 132.918C33.9174 132.639 33.7768 132.402 33.528 132.205C33.2755 132.006 33.0114 131.924 32.7356 131.959C32.4568 131.998 32.2145 132.147 32.0086 132.406L29.9697 134.97Z" fill="white"/>
<path d="M30.7375 128.648L27.1101 132.491L25.5263 131.006C25.2606 130.757 25.0698 130.49 24.9539 130.207C24.8345 129.92 24.8021 129.631 24.8568 129.338C24.9116 129.046 25.0655 128.766 25.3187 128.498C25.5654 128.237 25.8368 128.069 26.1328 127.997C26.4256 127.928 26.7176 127.943 27.0089 128.041L27.575 125.684L28.4756 126.528L27.9426 128.653L28.6206 129.289L29.9352 127.896L30.7375 128.648ZM27.9633 129.985L27.1766 129.248C27.0075 129.089 26.8275 129.011 26.6365 129.014C26.4421 129.013 26.2703 129.092 26.121 129.25C25.9684 129.411 25.8984 129.589 25.9111 129.782C25.9203 129.972 26.0094 130.147 26.1785 130.305L26.9652 131.042L27.9633 129.985Z" fill="white"/>
<path d="M23.4573 120.805C23.6789 121.076 23.8377 121.367 23.9338 121.679C24.03 121.991 24.0606 122.301 24.0258 122.609C23.9909 122.918 23.8893 123.204 23.7208 123.469L22.8011 123.029C22.9589 122.736 23.0258 122.444 23.0016 122.153C22.9744 121.858 22.8785 121.61 22.7139 121.409C22.5432 121.201 22.3678 121.072 22.1875 121.024C22.0073 120.975 21.8566 121 21.7354 121.099C21.629 121.185 21.573 121.289 21.5674 121.409C21.5582 121.532 21.5846 121.669 21.6467 121.819L22.0649 122.869C22.2392 123.305 22.2979 123.687 22.241 124.013C22.1804 124.343 22.0143 124.618 21.7426 124.839C21.4966 125.039 21.2343 125.151 20.9556 125.177C20.6702 125.202 20.3863 125.146 20.1039 125.01C19.8215 124.874 19.559 124.658 19.3165 124.361C19.101 124.098 18.9508 123.821 18.866 123.531C18.7775 123.243 18.7492 122.958 18.7814 122.676C18.8069 122.394 18.8907 122.134 19.0327 121.897L19.9524 122.337C19.8147 122.565 19.7533 122.803 19.7682 123.054C19.7831 123.303 19.8804 123.538 20.06 123.757C20.2127 123.944 20.3777 124.059 20.5549 124.105C20.7322 124.149 20.885 124.119 21.0135 124.015C21.2082 123.857 21.2369 123.608 21.0998 123.269L20.6885 122.251C20.5136 121.821 20.4494 121.443 20.496 121.119C20.5425 120.795 20.7071 120.518 20.9898 120.289C21.2358 120.089 21.503 119.978 21.7914 119.957C22.0767 119.932 22.3636 119.992 22.652 120.135C22.9404 120.278 23.2089 120.501 23.4573 120.805Z" fill="white"/>
<path d="M20.3026 116.732L16.731 119.179L17.492 120.282L16.7015 120.824L14.5635 117.725L15.3539 117.184L16.1069 118.275L19.6786 115.827L20.3026 116.732Z" fill="white"/>
<path d="M16.7661 110.894C16.963 111.239 17.0861 111.592 17.1355 111.955C17.1849 112.318 17.1659 112.671 17.0784 113.014C16.9844 113.356 16.8285 113.669 16.6107 113.956C16.3928 114.242 16.1151 114.481 15.7775 114.673C15.4399 114.865 15.0931 114.983 14.7369 115.027C14.3784 115.068 14.03 115.04 13.6917 114.944C13.351 114.844 13.0366 114.68 12.7485 114.452C12.4603 114.225 12.2166 113.937 12.0174 113.588C11.8181 113.239 11.6938 112.883 11.6444 112.521C11.595 112.157 11.6153 111.806 11.7051 111.467C11.7926 111.124 11.9465 110.812 12.1667 110.529C12.3845 110.243 12.6622 110.004 12.9998 109.812C13.3374 109.621 13.6854 109.505 14.0439 109.464C14.4024 109.424 14.7541 109.452 15.0988 109.55C15.4371 109.646 15.7504 109.808 16.0385 110.036C16.3267 110.263 16.5692 110.549 16.7661 110.894ZM15.9016 111.384C15.7422 111.105 15.5354 110.891 15.2812 110.742C15.0205 110.592 14.7407 110.517 14.4416 110.518C14.1402 110.515 13.8412 110.598 13.5448 110.766C13.2484 110.934 13.0245 111.148 12.8731 111.408C12.7193 111.663 12.6431 111.94 12.6444 112.238C12.6434 112.532 12.7225 112.818 12.8819 113.098C13.0413 113.376 13.2493 113.592 13.5058 113.746C13.76 113.895 14.0378 113.971 14.3393 113.973C14.6383 113.972 14.9361 113.888 15.2325 113.719C15.5289 113.551 15.754 113.339 15.9078 113.084C16.0592 112.824 16.1375 112.546 16.1426 112.25C16.1413 111.952 16.061 111.663 15.9016 111.384Z" fill="white"/>
<path d="M14.8759 107.445L10.07 109.658L9.15801 107.691C9.00501 107.361 8.92796 107.043 8.92685 106.737C8.92374 106.426 9.00239 106.145 9.16277 105.895C9.3231 105.644 9.57101 105.442 9.90646 105.287C10.2333 105.137 10.5476 105.083 10.8494 105.126C11.1469 105.171 11.4123 105.294 11.6456 105.493L13.0548 103.518L13.5734 104.636L12.2817 106.409L12.6722 107.251L14.4139 106.449L14.8759 107.445ZM11.8013 107.652L11.3483 106.675C11.2509 106.465 11.1132 106.325 10.9352 106.256C10.7552 106.183 10.5662 106.192 10.3684 106.283C10.1663 106.376 10.0349 106.515 9.97405 106.699C9.91125 106.879 9.92853 107.073 10.0259 107.284L10.4789 108.261L11.8013 107.652Z" fill="white"/>
<path d="M12.2955 101.371L10.1245 102.156L7.92235 104.827L7.50065 103.669L8.90254 102.017L6.76638 101.652L6.34473 100.494L9.7422 101.127L11.9199 100.339L12.2955 101.371Z" fill="white"/>
<path d="M9.76714 93.0978L4.57584 94.1315L4.14965 92.0069C4.07815 91.6507 4.07772 91.3232 4.14837 91.0254C4.21809 90.7227 4.36026 90.4678 4.57491 90.2616C4.78955 90.0549 5.07806 89.916 5.44037 89.8438C5.79345 89.7735 6.11163 89.7943 6.39498 89.9062C6.67371 90.0191 6.90315 90.1996 7.08337 90.4479L8.91615 88.8552L9.15851 90.0633L7.4874 91.4865L7.66984 92.3964L9.55125 92.0215L9.76714 93.0978ZM6.72914 92.5835L6.51742 91.5281C6.47195 91.3015 6.37068 91.1338 6.21369 91.0254C6.05576 90.9125 5.86993 90.8771 5.65626 90.9201C5.43793 90.9634 5.27765 91.0674 5.17545 91.2321C5.07228 91.3922 5.04346 91.5856 5.08898 91.8127L5.30065 92.8681L6.72914 92.5835Z" fill="white"/>
<path d="M8.47552 85.79L3.20632 86.2998L2.8623 82.7693L3.81713 82.6768L4.05472 85.1151L5.25001 84.9996L5.02617 82.702L5.98099 82.61L6.20483 84.9072L7.41428 84.7903L7.17667 82.352L8.13221 82.2666L8.47552 85.79Z" fill="white"/>
<path d="M7.98831 79.6533L2.6841 77.885L2.67578 76.4335L7.95935 74.605L7.96602 75.7662L6.88794 76.1264L6.89954 78.1439L7.98165 78.4921L7.98831 79.6533ZM5.93845 77.8381L5.93045 76.4432L3.78844 77.1491L5.93845 77.8381Z" fill="white"/>
<path d="M8.0711 73.1642L2.79785 72.6983L2.95048 70.9843C3.00115 70.4157 3.15836 69.932 3.42213 69.5333C3.6859 69.135 4.02623 68.8381 4.44312 68.6425C4.86002 68.4473 5.32329 68.3721 5.83293 68.4172C6.34256 68.4624 6.78766 68.6177 7.16823 68.8837C7.5441 69.1492 7.82665 69.501 8.01589 69.9395C8.20514 70.3781 8.27442 70.8817 8.22375 71.4508L8.0711 73.1642ZM7.21291 71.9867L7.27069 71.3379C7.30125 70.9945 7.25924 70.6923 7.14456 70.4312C7.02518 70.1697 6.84655 69.9594 6.60859 69.801C6.36632 69.6373 6.07533 69.5404 5.73557 69.5103C5.39111 69.4802 5.08755 69.5244 4.82489 69.643C4.56264 69.7572 4.352 69.9329 4.19295 70.1701C4.03392 70.4073 3.93911 70.6976 3.90855 71.0405L3.85076 71.6897L7.21291 71.9867Z" fill="white"/>
<path d="M10.188 60.2688C10.095 60.6543 9.94174 60.9964 9.72838 61.2946C9.51502 61.5933 9.25867 61.8376 8.95928 62.0279C8.65643 62.2129 8.3272 62.335 7.97155 62.3956C7.61589 62.4558 7.24922 62.4408 6.87154 62.3505C6.49385 62.2598 6.15987 62.1093 5.86959 61.8991C5.58042 61.6841 5.34543 61.4261 5.16467 61.1256C4.98502 60.8202 4.86826 60.4866 4.81448 60.1241C4.76069 59.7617 4.7809 59.3851 4.8751 58.9952C4.9693 58.6049 5.12306 58.2606 5.33641 57.9624C5.54977 57.6641 5.80559 57.4221 6.10382 57.2362C6.40316 57.0455 6.73013 56.9224 7.08467 56.8667C7.44033 56.8065 7.807 56.8215 8.18468 56.9118C8.56237 57.0025 8.89582 57.1552 9.18499 57.3703C9.47412 57.5853 9.71088 57.846 9.89515 58.1522C10.0759 58.4527 10.1932 58.7846 10.247 59.147C10.3008 59.5095 10.2811 59.8834 10.188 60.2688ZM9.22078 60.037C9.29615 59.725 9.29233 59.428 9.20942 59.1457C9.12294 58.8581 8.97025 58.6125 8.75126 58.4098C8.53341 58.2022 8.25867 58.0584 7.92705 57.9792C7.59542 57.8995 7.2852 57.9026 6.99642 57.9889C6.70876 58.0704 6.46303 58.2204 6.25931 58.4385C6.0567 58.6523 5.91769 58.9151 5.84236 59.2271C5.76699 59.5391 5.77024 59.8387 5.85204 60.125C5.93501 60.4074 6.08543 60.6521 6.30328 60.8596C6.52223 61.0627 6.79754 61.2039 7.12917 61.2836C7.4608 61.3628 7.77045 61.3619 8.05811 61.2805C8.34692 61.1942 8.59492 61.045 8.80215 60.8322C9.00587 60.614 9.14542 60.3489 9.22078 60.037Z" fill="white"/>
<path d="M7.20199 51.7118L7.55925 50.6736L10.6648 51.7343C11.0367 51.8618 11.3436 52.0614 11.5854 52.3335C11.8273 52.6057 11.9826 52.9256 12.0514 53.2938C12.1216 53.6571 12.0861 54.0439 11.9447 54.455C11.8049 54.8612 11.5946 55.1883 11.3138 55.437C11.033 55.6852 10.7133 55.8432 10.3547 55.91C9.99603 55.9773 9.63078 55.9472 9.25883 55.8202L6.15332 54.759L6.51058 53.7208L9.61608 54.782C9.92977 54.8891 10.2145 54.8842 10.4701 54.767C10.7229 54.6435 10.9007 54.4324 11.0037 54.1333C11.1082 53.8297 11.0978 53.554 10.9726 53.3066C10.8429 53.0579 10.6212 52.88 10.3075 52.7725L7.20199 51.7118Z" fill="white"/>
<path d="M13.4391 50.3254L8.59473 48.1982L9.47165 46.2156C9.61879 45.8828 9.80719 45.6151 10.037 45.4115C10.2686 45.2036 10.5319 45.077 10.8265 45.031C11.1213 44.9849 11.4377 45.0363 11.7758 45.1845C12.1053 45.3292 12.3536 45.5288 12.5208 45.7828C12.6838 46.0346 12.7673 46.3139 12.7717 46.6201L15.1901 46.367L14.6915 47.4941L12.503 47.7016L12.1276 48.5504L13.8833 49.3213L13.4391 50.3254ZM11.2498 48.165L11.6854 47.1799C11.779 46.9684 11.7928 46.7732 11.7268 46.5949C11.6628 46.4117 11.531 46.2767 11.3317 46.1891C11.1279 46.0997 10.9366 46.093 10.758 46.1692C10.5812 46.2413 10.446 46.3829 10.3524 46.5944L9.91676 47.5795L11.2498 48.165Z" fill="white"/>
<path d="M18.4348 40.8723C18.2525 41.1706 18.0298 41.4169 17.767 41.6111C17.5041 41.8053 17.2209 41.9374 16.9173 42.0075C16.6138 42.0775 16.3088 42.0775 16.0021 42.0075L16.1124 40.9967C16.4419 41.0474 16.7403 41.013 17.0076 40.8933C17.2773 40.7696 17.48 40.5969 17.6155 40.3751C17.7559 40.1453 17.8191 39.9377 17.8048 39.7522C17.7906 39.5667 17.7168 39.4335 17.5833 39.3525C17.4659 39.2813 17.3494 39.2631 17.2338 39.2979C17.1142 39.3304 16.9935 39.4008 16.8717 39.5093L16.0186 40.2517C15.6631 40.561 15.3215 40.7434 14.9937 40.7987C14.6619 40.8516 14.3463 40.7872 14.0468 40.6055C13.7757 40.441 13.5817 40.2321 13.4648 39.9787C13.3463 39.7189 13.3043 39.4337 13.3388 39.123C13.3734 38.8124 13.4905 38.4938 13.6901 38.1672C13.8674 37.8769 14.0794 37.6436 14.326 37.4671C14.5685 37.2882 14.8284 37.1668 15.1059 37.1031C15.3818 37.0328 15.6556 37.0249 15.9274 37.0793L15.8172 38.0901C15.5559 38.0366 15.3096 38.0585 15.0782 38.1557C14.8468 38.253 14.6572 38.4225 14.5094 38.6644C14.3837 38.87 14.3292 39.0635 14.3459 39.245C14.3626 39.4264 14.4417 39.5601 14.5833 39.646C14.7978 39.7762 15.0427 39.7203 15.3181 39.4784L16.1443 38.7528C16.4933 38.4451 16.8288 38.2591 17.151 38.1948C17.4731 38.1305 17.79 38.1929 18.1015 38.382C18.3726 38.5465 18.5662 38.7607 18.6823 39.0245C18.8008 39.2844 18.8403 39.5736 18.8008 39.8923C18.7614 40.211 18.6394 40.5377 18.4348 40.8723Z" fill="white"/>
<path d="M21.2377 36.5511L17.7317 34.0112L16.9419 35.0935L16.166 34.5314L18.385 31.4905L19.1609 32.0526L18.3794 33.1235L21.8854 35.6634L21.2377 36.5511Z" fill="white"/>
<path d="M25.5833 31.2833C25.3229 31.5831 25.0292 31.8167 24.7021 31.984C24.375 32.1515 24.0345 32.2512 23.6809 32.2833C23.3267 32.3087 22.9778 32.2668 22.634 32.1576C22.2903 32.0485 21.9715 31.8673 21.6778 31.6139C21.3841 31.3606 21.1568 31.0741 20.996 30.7543C20.8383 30.431 20.7485 30.0944 20.7265 29.7447C20.7076 29.3913 20.7579 29.0413 20.8773 28.6948C20.9966 28.3482 21.1881 28.0232 21.4516 27.7199C21.7151 27.4165 22.0104 27.1811 22.3375 27.0137C22.6646 26.8464 23.0035 26.7484 23.3541 26.7199C23.7077 26.6878 24.0549 26.7281 24.3955 26.8409C24.7393 26.9501 25.058 27.1313 25.3517 27.3846C25.6454 27.6379 25.8712 27.9262 26.0289 28.2495C26.1866 28.5729 26.2767 28.9128 26.2991 29.2692C26.3211 29.619 26.2724 29.9672 26.153 30.3137C26.0336 30.6603 25.8438 30.9835 25.5833 31.2833ZM24.8311 30.6346C25.042 30.3918 25.1756 30.1263 25.232 29.8378C25.2878 29.5426 25.2654 29.2547 25.1644 28.9742C25.0667 28.6901 24.8888 28.4368 24.6309 28.2144C24.373 27.992 24.096 27.8529 23.7997 27.7972C23.5066 27.738 23.2193 27.7586 22.9377 27.8591C22.6593 27.9561 22.4146 28.1259 22.2038 28.3686C21.993 28.6113 21.8578 28.8787 21.7983 29.1708C21.742 29.4592 21.7627 29.7456 21.8605 30.0297C21.9614 30.3102 22.1408 30.5617 22.3987 30.7841C22.6566 31.0065 22.932 31.1474 23.2252 31.2067C23.5214 31.2624 23.8105 31.2433 24.0926 31.1494C24.3741 31.0488 24.6203 30.8772 24.8311 30.6346Z" fill="white"/>
<path d="M28.2165 28.3582L24.5215 24.5806L26.0787 23.0684C26.3399 22.8147 26.6152 22.6363 26.9047 22.5332C27.1975 22.4268 27.4892 22.4071 27.7798 22.4743C28.0704 22.5414 28.3447 22.7068 28.6026 22.9705C28.8538 23.2274 29.0094 23.5048 29.0692 23.8026C29.1257 24.0971 29.0985 24.3872 28.9877 24.6728L31.3258 25.3386L30.4403 26.1985L28.3328 25.5757L27.6662 26.2231L29.0053 27.5921L28.2165 28.3582ZM26.9966 25.5386L27.7701 24.7874C27.9363 24.626 28.0223 24.4502 28.0281 24.26C28.0373 24.0665 27.9659 23.892 27.8138 23.7365C27.6584 23.5776 27.4835 23.5002 27.2891 23.5044C27.0982 23.5053 26.9196 23.5865 26.7533 23.7479L25.9798 24.4991L26.9966 25.5386Z" fill="white"/>
<path d="M33.1048 23.9105L31.6387 22.1325L28.377 20.9539L29.3323 20.1718L31.3623 20.9384L30.996 18.8099L31.9513 18.0278L32.4852 21.4303L33.9558 23.2138L33.1048 23.9105Z" fill="white"/>
<path d="M40.0901 18.7775L37.3818 14.245L39.2502 13.1366C39.5637 12.9507 39.8732 12.8412 40.1788 12.8083C40.4884 12.7729 40.7767 12.8216 41.0435 12.9545C41.3104 13.0874 41.5383 13.312 41.7273 13.6283C41.9115 13.9366 41.9978 14.2424 41.9862 14.546C41.9722 14.8455 41.8778 15.1212 41.7031 15.3732L43.8207 16.5643L42.7583 17.1945L40.8549 16.0989L40.055 16.5734L41.0365 18.216L40.0901 18.7775ZM39.5642 15.7521L40.4923 15.2015C40.6918 15.0832 40.8166 14.9322 40.8668 14.7486C40.921 14.5626 40.8924 14.3763 40.781 14.1897C40.667 13.9991 40.5151 13.8832 40.3251 13.8421C40.1392 13.7986 39.9465 13.836 39.7471 13.9543L38.819 14.5049L39.5642 15.7521Z" fill="white"/>
<path d="M46.5761 15.1297L44.3379 10.3494L47.5643 8.84961L47.9698 9.71586L45.7416 10.7516L46.2493 11.836L48.3487 10.8601L48.7541 11.7264L46.6548 12.7022L47.1686 13.7995L49.3968 12.7637L49.7961 13.6329L46.5761 15.1297Z" fill="white"/>
<path d="M52.2206 12.6268L52.126 7.05446L53.497 6.56299L56.9878 10.9173L55.8913 11.3105L55.1913 10.4177L53.2856 11.101L53.3171 12.2336L52.2206 12.6268ZM53.2549 10.0962L54.5722 9.62383L53.1901 7.84681L53.2549 10.0962Z" fill="white"/>
<path d="M58.3877 10.5417L57.0713 5.43238L58.7439 5.00463C59.299 4.86262 59.8093 4.84917 60.2743 4.96418C60.7393 5.0792 61.1333 5.29997 61.457 5.62656C61.7808 5.9531 62.0064 6.36328 62.1339 6.85705C62.2609 7.35087 62.2622 7.82079 62.1374 8.26695C62.0113 8.70851 61.7724 9.09125 61.4206 9.41514C61.0689 9.73902 60.6154 9.97197 60.0603 10.114L58.3877 10.5417ZM59.216 9.343L59.8493 9.18108C60.1842 9.09541 60.456 8.95517 60.6652 8.76042C60.873 8.56106 61.0125 8.3232 61.0831 8.04684C61.1568 7.76473 61.1515 7.45907 61.0666 7.12992C60.9809 6.79612 60.8379 6.52569 60.6376 6.31859C60.4422 6.11029 60.2059 5.97093 59.9283 5.90053C59.6512 5.83012 59.3448 5.83778 59.0099 5.92345L58.3766 6.08537L59.216 9.343Z" fill="white"/>
<path d="M71.2951 8.23337C70.8994 8.27439 70.5246 8.24439 70.171 8.14341C69.8175 8.04238 69.5008 7.88302 69.221 7.66525C68.9452 7.44231 68.7196 7.17382 68.5438 6.85981C68.3683 6.54583 68.2604 6.19632 68.22 5.81132C68.18 5.42632 68.2111 5.06243 68.3133 4.71965C68.4203 4.37633 68.586 4.06967 68.8102 3.79966C69.0394 3.52915 69.3165 3.30824 69.6412 3.13693C69.9663 2.96561 70.3291 2.8592 70.7297 2.81769C71.1303 2.77619 71.5074 2.80593 71.8605 2.90693C72.214 3.00792 72.5285 3.16755 72.8038 3.38581C73.0836 3.60358 73.3092 3.86971 73.4802 4.1842C73.6557 4.49821 73.7636 4.84767 73.804 5.23267C73.844 5.61767 73.8106 5.98183 73.7036 6.3251C73.5966 6.66841 73.4287 6.97765 73.2004 7.25286C72.9761 7.52289 72.7012 7.74354 72.3761 7.91484C72.0515 8.08619 71.6908 8.19235 71.2951 8.23337ZM71.1921 7.24742C71.5127 7.21423 71.7925 7.11165 72.0315 6.93973C72.2753 6.76263 72.4565 6.53742 72.5755 6.26403C72.6994 5.99019 72.7434 5.68427 72.7083 5.34622C72.6732 5.00818 72.5667 4.71788 72.389 4.47524C72.2158 4.23217 71.992 4.05128 71.7179 3.9326C71.4479 3.81342 71.153 3.77044 70.8328 3.80364C70.5121 3.83685 70.2301 3.93965 69.9863 4.11205C69.7469 4.28396 69.5652 4.50684 69.4413 4.78072C69.3223 5.05407 69.2806 5.35977 69.3157 5.69781C69.3512 6.03582 69.4551 6.32638 69.6283 6.56951C69.806 6.8121 70.0298 6.99531 70.2998 7.11917C70.5743 7.23786 70.8719 7.28061 71.1921 7.24742Z" fill="white"/>
<path d="M78.3973 2.57724L79.4987 2.56689L79.5294 5.83793C79.5334 6.2297 79.4468 6.58457 79.2696 6.90248C79.0924 7.22044 78.8414 7.47294 78.5163 7.66013C78.1961 7.84723 77.8177 7.94282 77.382 7.94694C76.9508 7.95096 76.5711 7.86246 76.2424 7.68146C75.9138 7.50042 75.6579 7.25265 75.4749 6.9381C75.292 6.62355 75.1987 6.27037 75.1952 5.8786L75.1641 2.60759L76.2655 2.59725L76.2966 5.86829C76.2997 6.19868 76.3992 6.46446 76.5955 6.66559C76.7962 6.86199 77.0552 6.95868 77.3727 6.95572C77.6947 6.95266 77.9523 6.8511 78.1446 6.65103C78.3369 6.44628 78.4315 6.17868 78.4284 5.84824L78.3973 2.57724Z" fill="white"/>
<path d="M81.7881 7.97482L82.1865 2.71484L84.3547 2.87799C84.7184 2.90536 85.0351 2.99307 85.3042 3.14113C85.5778 3.28954 85.7857 3.49453 85.9273 3.75607C86.069 4.01763 86.1259 4.33197 86.0983 4.69913C86.0712 5.05683 85.9651 5.35655 85.7808 5.5983C85.5965 5.83532 85.3602 6.00689 85.072 6.11301L86.1174 8.30056L84.8845 8.20781L83.959 6.22099L83.0308 6.15115L82.8864 8.05744L81.7881 7.97482ZM83.1031 5.19799L84.1801 5.27906C84.4115 5.29646 84.6007 5.24441 84.7477 5.12294C84.8992 5.00182 84.9836 4.83299 85 4.61647C85.0164 4.39525 84.9591 4.21341 84.8272 4.07095C84.7002 3.92885 84.5212 3.84909 84.2898 3.83167L83.2128 3.75064L83.1031 5.19799Z" fill="white"/>
<path d="M92.3976 9.51741C92.0547 9.44549 91.7474 9.31844 91.476 9.13617C91.2046 8.95389 90.9852 8.73187 90.8178 8.47007C90.6504 8.20827 90.5487 7.92169 90.5127 7.61028L91.5062 7.37703C91.5679 7.70348 91.6998 7.97236 91.9024 8.18358C92.1093 8.39573 92.3403 8.52857 92.5952 8.58199C92.8595 8.63735 93.0771 8.62744 93.2476 8.55229C93.4186 8.47715 93.5199 8.36333 93.5523 8.21088C93.5803 8.07693 93.5589 7.96147 93.4874 7.86447C93.4168 7.76287 93.3098 7.67295 93.1668 7.59471L92.1799 7.04066C91.7687 6.80979 91.4822 6.54959 91.3206 6.26008C91.1602 5.96598 91.1158 5.64798 91.1878 5.30617C91.2535 4.99666 91.3863 4.74478 91.587 4.55051C91.7936 4.35257 92.0494 4.21807 92.3549 4.14701C92.6605 4.07596 93.0007 4.07977 93.3764 4.15845C93.71 4.22839 94.0017 4.34976 94.2505 4.52254C94.5009 4.69074 94.7021 4.89453 94.8549 5.13394C95.0135 5.36972 95.1121 5.62435 95.1511 5.89787L94.1581 6.13109C94.1217 5.86783 94.0191 5.64369 93.8499 5.45871C93.6806 5.27378 93.4568 5.15212 93.1788 5.09384C92.9425 5.04432 92.7413 5.0576 92.5752 5.13376C92.4087 5.20987 92.3087 5.32878 92.2745 5.49044C92.223 5.73529 92.3576 5.94673 92.6783 6.12485L93.6398 6.65924C94.0475 6.88454 94.3353 7.13775 94.5036 7.41902C94.6715 7.70025 94.7181 8.01869 94.6431 8.3744C94.5778 8.6839 94.4397 8.93712 94.2287 9.13409C94.0222 9.33203 93.7619 9.46554 93.447 9.53466C93.1321 9.60379 92.7826 9.59799 92.3976 9.51741Z" fill="white"/>
<path d="M97.4201 10.7108L98.6552 6.57073L97.3682 6.18945L97.6413 5.27319L101.258 6.34442L100.985 7.26068L99.7109 6.88342L98.4763 11.0235L97.4201 10.7108Z" fill="white"/>
<path d="M103.853 13.038C103.483 12.8932 103.164 12.6951 102.896 12.4436C102.629 12.192 102.421 11.9055 102.273 11.584C102.131 11.2597 102.054 10.9179 102.043 10.5586C102.032 10.1993 102.097 9.83946 102.239 9.47911C102.381 9.11876 102.576 8.80979 102.825 8.55215C103.078 8.29623 103.367 8.09966 103.691 7.96248C104.019 7.82702 104.367 7.75763 104.735 7.75427C105.102 7.75086 105.474 7.82242 105.848 7.96889C106.223 8.11541 106.544 8.31438 106.812 8.56591C107.079 8.81744 107.285 9.10309 107.429 9.42295C107.577 9.74454 107.654 10.0841 107.661 10.4417C107.672 10.801 107.607 11.1609 107.465 11.5212C107.323 11.8815 107.126 12.1897 106.873 12.4456C106.619 12.7015 106.328 12.8994 105.998 13.0393C105.674 13.1764 105.328 13.2467 104.961 13.2501C104.593 13.2534 104.224 13.1827 103.853 13.038ZM104.217 12.1151C104.517 12.2323 104.812 12.2693 105.104 12.2262C105.402 12.1803 105.667 12.0633 105.899 11.875C106.135 11.6884 106.315 11.4369 106.44 11.1205C106.564 10.8041 106.603 10.4975 106.558 10.2007C106.516 9.90553 106.401 9.64249 106.212 9.41145C106.027 9.18217 105.785 9.00892 105.485 8.89174C105.185 8.77456 104.887 8.73672 104.591 8.77814C104.299 8.82134 104.035 8.93622 103.799 9.12274C103.567 9.31104 103.389 9.56337 103.265 9.87978C103.14 10.1962 103.098 10.5019 103.14 10.797C103.186 11.0939 103.301 11.3591 103.483 11.5928C103.672 11.8238 103.917 11.9979 104.217 12.1151Z" fill="white"/>
<path d="M107.498 14.5367L109.841 9.80664L111.791 10.7656C112.118 10.9265 112.379 11.1257 112.573 11.3632C112.771 11.6029 112.887 11.8704 112.92 12.1658C112.954 12.4611 112.888 12.7739 112.725 13.1041C112.566 13.4257 112.355 13.6643 112.093 13.8198C111.833 13.971 111.55 14.0421 111.242 14.0331L111.392 16.4516L110.283 15.9063L110.17 13.7188L109.335 13.3082L108.486 15.0225L107.498 14.5367ZM109.76 12.4511L110.728 12.9274C110.936 13.0298 111.131 13.0521 111.314 12.9941C111.5 12.9383 111.641 12.813 111.737 12.6183C111.836 12.4193 111.851 12.2293 111.782 12.0481C111.718 11.869 111.581 11.7282 111.373 11.6259L110.404 11.1495L109.76 12.4511Z" fill="white"/>
<path d="M113.336 17.6468L114.53 15.677L114.558 12.22L115.616 12.8569L115.567 15.0194L117.459 13.9659L118.518 14.6028L115.476 16.2383L114.278 18.2141L113.336 17.6468Z" fill="white"/>
<path d="M120.521 22.499L123.907 18.4443L125.579 19.8302C125.859 20.0627 126.066 20.317 126.199 20.5931C126.336 20.8722 126.386 21.1592 126.349 21.4542C126.312 21.7492 126.176 22.0382 125.939 22.3212C125.709 22.5969 125.448 22.7799 125.157 22.8702C124.869 22.9568 124.577 22.96 124.28 22.8799L123.859 25.2662L122.908 24.4782L123.311 22.3248L122.595 21.7315L121.368 23.201L120.521 22.499ZM123.209 20.9968L124.039 21.6852C124.217 21.8331 124.402 21.9001 124.592 21.8861C124.786 21.875 124.953 21.7861 125.093 21.6192C125.235 21.4487 125.294 21.2673 125.27 21.0751C125.249 20.886 125.149 20.7174 124.971 20.5695L124.141 19.881L123.209 20.9968Z" fill="white"/>
<path d="M126.134 27.3754L129.912 23.6797L132.406 26.2108L131.721 26.8805L129.999 25.1325L129.142 25.9708L130.765 27.6178L130.08 28.2875L128.457 26.6405L127.59 27.4888L129.313 29.2368L128.623 29.9015L126.134 27.3754Z" fill="white"/>
<path d="M130.383 31.8443L135.624 29.8987L136.546 31.0226L133.589 35.7532L132.852 34.8541L133.463 33.8989L132.182 32.3364L131.121 32.7433L130.383 31.8443ZM133.122 31.9728L134.008 33.0528L135.229 31.1624L133.122 31.9728Z" fill="white"/>
<path d="M134.412 36.9432L138.808 34.0042L139.77 35.4329C140.089 35.9072 140.272 36.3819 140.319 36.857C140.364 37.3321 140.287 37.7761 140.086 38.1891C139.885 38.6021 139.572 38.9506 139.147 39.2347C138.722 39.5187 138.278 39.6765 137.814 39.7079C137.354 39.7368 136.913 39.6399 136.489 39.4173C136.065 39.1947 135.693 38.8463 135.374 38.372L134.412 36.9432ZM135.822 37.322L136.186 37.8629C136.379 38.1491 136.603 38.3578 136.857 38.4893C137.115 38.6182 137.386 38.6697 137.671 38.644C137.962 38.6196 138.25 38.5127 138.533 38.3233C138.82 38.1313 139.029 37.9069 139.158 37.6499C139.29 37.3968 139.343 37.1283 139.317 36.8443C139.291 36.5602 139.182 36.2752 138.989 35.989L138.625 35.4481L135.822 37.322Z" fill="white"/>
<path d="M140.897 48.3002C140.726 47.9422 140.629 47.5802 140.607 47.2142C140.585 46.8487 140.63 46.4982 140.743 46.1623C140.862 45.8291 141.041 45.5277 141.279 45.2582C141.518 44.9883 141.813 44.7706 142.164 44.6046C142.515 44.4382 142.869 44.3462 143.228 44.328C143.588 44.3143 143.934 44.3679 144.264 44.4887C144.596 44.6135 144.898 44.8002 145.168 45.0485C145.438 45.2967 145.66 45.6021 145.833 45.9645C146.005 46.3269 146.103 46.6911 146.125 47.0567C146.148 47.4222 146.101 47.7709 145.986 48.1023C145.873 48.4378 145.697 48.7383 145.456 49.0038C145.218 49.2733 144.923 49.491 144.572 49.6569C144.221 49.8233 143.866 49.9132 143.505 49.9269C143.144 49.9406 142.796 49.8862 142.46 49.7632C142.129 49.6428 141.829 49.4583 141.558 49.21C141.288 48.9617 141.067 48.6582 140.897 48.3002ZM141.795 47.8749C141.934 48.1647 142.124 48.3935 142.366 48.5613C142.615 48.7307 142.889 48.8259 143.187 48.8467C143.487 48.8719 143.791 48.8117 144.1 48.6657C144.407 48.5201 144.647 48.3232 144.817 48.0754C144.99 47.832 145.086 47.5616 145.107 47.2642C145.13 46.9712 145.072 46.6796 144.934 46.3898C144.796 46.0999 144.605 45.8689 144.36 45.6972C144.118 45.5295 143.846 45.4335 143.546 45.4082C143.248 45.3874 142.944 45.4498 142.636 45.5959C142.328 45.7415 142.088 45.9362 141.915 46.18C141.745 46.4278 141.646 46.6991 141.619 46.9943C141.598 47.2912 141.657 47.585 141.795 47.8749Z" fill="white"/>
<path d="M148.616 53.0879L148.993 54.119L145.908 55.2381C145.539 55.3722 145.174 55.409 144.814 55.3488C144.455 55.2881 144.132 55.1368 143.846 54.8934C143.562 54.6549 143.346 54.3314 143.197 53.9234C143.049 53.5198 143.007 53.1335 143.068 52.7644C143.13 52.3953 143.279 52.0727 143.516 51.7957C143.753 51.5191 144.056 51.3138 144.425 51.1797L147.51 50.0605L147.887 51.0916L144.802 52.2108C144.49 52.3241 144.272 52.506 144.147 52.7573C144.028 53.0118 144.023 53.287 144.132 53.5844C144.242 53.8862 144.424 54.0938 144.677 54.2079C144.935 54.3203 145.22 54.3199 145.532 54.207L148.616 53.0879Z" fill="white"/>
<path d="M144.639 58.0712L149.748 56.6931L150.317 58.7845C150.412 59.135 150.434 59.4616 150.384 59.7638C150.335 60.0705 150.21 60.3338 150.01 60.5542C149.81 60.7746 149.531 60.9325 149.175 61.029C148.827 61.1228 148.508 61.1233 148.218 61.0303C147.932 60.9361 147.691 60.7715 147.494 60.536L145.773 62.2473L145.45 61.0582L147.021 59.5266L146.778 58.6309L144.926 59.1306L144.639 58.0712ZM147.704 58.3814L147.986 59.4204C148.047 59.6435 148.159 59.8041 148.324 59.9015C148.488 60.0037 148.676 60.0262 148.887 59.9696C149.102 59.9116 149.254 59.797 149.345 59.6258C149.437 59.4594 149.453 59.2642 149.393 59.0407L149.111 58.0021L147.704 58.3814Z" fill="white"/>
<path d="M146.714 68.5524C146.668 68.2064 146.686 67.8754 146.768 67.5598C146.85 67.2439 146.987 66.9638 147.179 66.7195C147.371 66.4748 147.608 66.2836 147.891 66.1464L148.443 67.0014C148.154 67.1687 147.944 67.3819 147.811 67.6426C147.68 67.9077 147.631 68.1688 147.665 68.4263C147.701 68.6932 147.783 68.8941 147.911 69.0295C148.039 69.1649 148.181 69.222 148.336 69.2016C148.471 69.1835 148.574 69.1246 148.642 69.0251C148.714 68.925 148.764 68.7949 148.79 68.6343L148.985 67.5222C149.067 67.0593 149.218 66.7036 149.438 66.4553C149.663 66.2062 149.949 66.0588 150.296 66.0128C150.611 65.9707 150.894 66.0119 151.144 66.1358C151.4 66.2637 151.613 66.4593 151.782 66.7226C151.951 66.9859 152.061 67.3072 152.111 67.686C152.156 68.0227 152.139 68.3369 152.058 68.6285C151.983 68.9197 151.857 69.1768 151.681 69.4003C151.511 69.6278 151.303 69.8052 151.057 69.9331L150.506 69.0777C150.742 68.956 150.92 68.7848 151.039 68.5639C151.157 68.3436 151.198 68.0931 151.161 67.8121C151.129 67.5736 151.049 67.389 150.922 67.258C150.794 67.1275 150.649 67.0731 150.484 67.0948C150.235 67.1279 150.08 67.3249 150.018 67.6855L149.833 68.7671C149.756 69.2251 149.612 69.5795 149.402 69.8313C149.192 70.0831 148.906 70.2332 148.544 70.281C148.23 70.323 147.944 70.2774 147.688 70.1447C147.431 70.0168 147.218 69.8167 147.048 69.5441C146.877 69.2715 146.766 68.941 146.714 68.5524Z" fill="white"/>
<path d="M147.259 73.6691L151.588 73.4496L151.519 72.1132L152.478 72.0649L152.669 75.8198L151.711 75.868L151.644 74.5458L147.315 74.7652L147.259 73.6691Z" fill="white"/>
<path d="M147.2 80.4881C147.214 80.0916 147.295 79.726 147.444 79.391C147.592 79.056 147.795 78.7653 148.049 78.5188C148.309 78.2772 148.607 78.0913 148.943 77.9612C149.279 77.8307 149.642 77.7723 150.03 77.7855C150.418 77.7988 150.776 77.8794 151.102 78.0272C151.429 78.1798 151.711 78.3856 151.948 78.644C152.186 78.9069 152.368 79.2105 152.493 79.5552C152.619 79.8995 152.675 80.2721 152.662 80.673C152.648 81.074 152.567 81.4422 152.418 81.7772C152.269 82.1122 152.067 82.4002 151.812 82.6419C151.557 82.8883 151.262 83.0747 150.926 83.1999C150.589 83.3304 150.227 83.3889 149.839 83.376C149.451 83.3627 149.094 83.2795 148.767 83.1269C148.44 82.9742 148.156 82.7662 147.914 82.5029C147.676 82.2445 147.494 81.9431 147.369 81.5988C147.243 81.2545 147.187 80.8841 147.2 80.4881ZM148.194 80.5217C148.184 80.8425 148.247 81.1328 148.385 81.3926C148.528 81.6572 148.727 81.867 148.982 82.0219C149.237 82.1816 149.535 82.2675 149.877 82.279C150.217 82.2905 150.521 82.225 150.786 82.0829C151.052 81.9458 151.262 81.7497 151.418 81.4953C151.573 81.2452 151.656 80.9602 151.667 80.6394C151.678 80.3186 151.615 80.0261 151.477 79.7614C151.339 79.5017 151.142 79.2919 150.887 79.1322C150.631 78.9773 150.333 78.8936 149.993 78.8821C149.651 78.8706 149.348 78.9339 149.083 79.0711C148.817 79.2131 148.605 79.4092 148.444 79.6588C148.289 79.9132 148.205 80.2009 148.194 80.5217Z" fill="white"/>
<path d="M146.997 84.4124L152.254 85.0372L151.996 87.1888C151.953 87.5494 151.851 87.8605 151.691 88.1221C151.53 88.388 151.316 88.5863 151.048 88.716C150.779 88.8456 150.461 88.8885 150.095 88.8452C149.737 88.8027 149.441 88.6841 149.207 88.4898C148.977 88.296 148.815 88.0535 148.721 87.7619L146.482 88.708L146.629 87.4848L148.661 86.6493L148.771 85.7284L146.867 85.5019L146.997 84.4124ZM149.724 85.8417L149.596 86.9104C149.569 87.1401 149.613 87.3308 149.728 87.4822C149.843 87.6384 150.009 87.7296 150.225 87.7552C150.446 87.7818 150.631 87.7322 150.779 87.6074C150.927 87.487 151.015 87.3122 151.043 87.0826L151.171 86.0139L149.724 85.8417Z" fill="white"/>
<path d="M145.999 90.9327L148.261 91.3978L151.542 90.2725L151.292 91.4788L149.229 92.1536L150.856 93.5799L150.606 94.7867L148.045 92.474L145.776 92.0072L145.999 90.9327Z" fill="white"/>
<path d="M143.802 99.2996L148.767 101.129L148.013 103.161C147.886 103.503 147.715 103.781 147.497 103.998C147.279 104.22 147.024 104.363 146.733 104.426C146.441 104.49 146.122 104.458 145.776 104.33C145.438 104.206 145.178 104.022 144.996 103.778C144.818 103.537 144.717 103.263 144.694 102.957L142.296 103.357L142.725 102.202L144.896 101.862L145.22 100.992L143.42 100.329L143.802 99.2996ZM146.119 101.324L145.745 102.333C145.664 102.55 145.662 102.746 145.739 102.92C145.814 103.099 145.954 103.226 146.158 103.301C146.367 103.378 146.558 103.373 146.732 103.286C146.904 103.203 147.03 103.054 147.111 102.837L147.486 101.827L146.119 101.324Z" fill="white"/>
<path d="M141.06 106.197L145.815 108.515L144.252 111.701L143.39 111.281L144.47 109.081L143.391 108.555L142.373 110.629L141.512 110.209L142.529 108.135L141.438 107.603L140.358 109.804L139.499 109.378L141.06 106.197Z" fill="white"/>
<path d="M138.247 111.679L141.834 115.954L141.078 117.195L135.616 115.993L136.221 115.001L137.329 115.257L138.38 113.532L137.641 112.671L138.247 111.679ZM139.038 114.295L138.311 115.487L140.507 116.004L139.038 114.295Z" fill="white"/>
<path d="M134.764 117.162L139.01 120.313L137.979 121.693C137.636 122.151 137.248 122.48 136.814 122.682C136.38 122.884 135.934 122.959 135.476 122.908C135.018 122.857 134.584 122.679 134.174 122.374C133.763 122.07 133.466 121.705 133.282 121.279C133.101 120.857 133.045 120.41 133.115 119.938C133.185 119.465 133.39 119 133.733 118.542L134.764 117.162ZM134.876 118.613L134.485 119.136C134.278 119.412 134.155 119.692 134.115 119.974C134.08 120.259 134.121 120.532 134.241 120.79C134.361 121.056 134.558 121.291 134.831 121.494C135.109 121.7 135.39 121.821 135.677 121.856C135.96 121.896 136.232 121.856 136.492 121.737C136.753 121.618 136.986 121.421 137.192 121.144L137.583 120.622L134.876 118.613Z" fill="white"/>
<path d="M126.178 127.04C126.461 126.76 126.77 126.549 127.109 126.406C127.448 126.264 127.795 126.189 128.15 126.183C128.505 126.184 128.85 126.252 129.185 126.386C129.519 126.52 129.823 126.724 130.098 126.999C130.372 127.273 130.577 127.576 130.713 127.906C130.847 128.24 130.912 128.583 130.907 128.933C130.9 129.287 130.824 129.632 130.679 129.969C130.534 130.306 130.319 130.616 130.033 130.899C129.748 131.182 129.436 131.395 129.097 131.538C128.759 131.68 128.414 131.753 128.062 131.755C127.707 131.761 127.363 131.696 127.032 131.558C126.698 131.424 126.393 131.219 126.119 130.945C125.845 130.671 125.642 130.366 125.508 130.032C125.375 129.698 125.31 129.352 125.315 128.995C125.319 128.645 125.393 128.301 125.538 127.965C125.683 127.628 125.896 127.32 126.178 127.04ZM126.88 127.743C126.652 127.969 126.499 128.224 126.421 128.507C126.343 128.798 126.345 129.087 126.424 129.374C126.5 129.664 126.659 129.93 126.9 130.171C127.14 130.411 127.406 130.571 127.697 130.648C127.986 130.729 128.273 130.73 128.562 130.65C128.847 130.574 129.103 130.423 129.332 130.196C129.56 129.97 129.715 129.713 129.795 129.426C129.873 129.143 129.874 128.856 129.798 128.565C129.718 128.278 129.558 128.014 129.317 127.773C129.076 127.532 128.812 127.371 128.524 127.291C128.233 127.213 127.943 127.211 127.655 127.284C127.367 127.363 127.108 127.516 126.88 127.743Z" fill="white"/>
<path d="M124.22 135.887L123.37 136.585L121.283 134.059C121.033 133.757 120.877 133.427 120.814 133.068C120.751 132.71 120.787 132.357 120.922 132.008C121.053 131.661 121.287 131.35 121.624 131.074C121.956 130.801 122.308 130.632 122.678 130.567C123.048 130.502 123.403 130.535 123.743 130.665C124.084 130.795 124.379 131.011 124.629 131.314L126.716 133.839L125.866 134.537L123.779 132.012C123.568 131.756 123.323 131.612 123.044 131.578C122.764 131.551 122.501 131.638 122.256 131.839C122.007 132.043 121.871 132.283 121.848 132.559C121.827 132.839 121.923 133.106 122.134 133.362L124.22 135.887Z" fill="white"/>
<path d="M118.179 133.811L121.187 138.152L119.397 139.383C119.097 139.589 118.795 139.719 118.493 139.772C118.186 139.829 117.895 139.799 117.62 139.684C117.345 139.57 117.102 139.361 116.892 139.058C116.688 138.762 116.581 138.463 116.573 138.159C116.566 137.86 116.642 137.578 116.8 137.315L114.606 136.268L115.624 135.568L117.597 136.534L118.363 136.008L117.273 134.434L118.179 133.811ZM118.908 136.794L118.019 137.406C117.828 137.537 117.714 137.696 117.676 137.882C117.634 138.072 117.675 138.256 117.799 138.434C117.925 138.617 118.085 138.722 118.277 138.751C118.465 138.781 118.656 138.731 118.847 138.6L119.735 137.989L118.908 136.794Z" fill="white"/>
<path d="M108.953 139.254C109.266 139.095 109.585 139.001 109.911 138.974C110.237 138.945 110.547 138.981 110.843 139.079C111.138 139.178 111.398 139.337 111.622 139.557L110.997 140.36C110.743 140.145 110.471 140.019 110.18 139.981C109.885 139.946 109.622 139.987 109.39 140.105C109.149 140.228 108.986 140.372 108.901 140.537C108.815 140.702 108.808 140.854 108.879 140.993C108.942 141.115 109.032 141.191 109.148 141.222C109.267 141.257 109.407 141.26 109.568 141.231L110.685 141.044C111.15 140.966 111.537 140.989 111.846 141.113C112.156 141.242 112.391 141.461 112.55 141.772C112.695 142.054 112.75 142.333 112.717 142.61C112.681 142.893 112.566 143.158 112.374 143.405C112.181 143.651 111.914 143.861 111.572 144.035C111.268 144.19 110.965 144.278 110.662 144.299C110.361 144.326 110.076 144.293 109.806 144.203C109.534 144.118 109.297 143.982 109.094 143.794L109.72 142.99C109.914 143.172 110.135 143.282 110.384 143.32C110.632 143.358 110.882 143.313 111.135 143.184C111.351 143.074 111.499 142.938 111.58 142.775C111.661 142.612 111.664 142.456 111.589 142.309C111.475 142.087 111.237 142.006 110.875 142.069L109.79 142.255C109.331 142.335 108.947 142.318 108.639 142.205C108.33 142.091 108.094 141.873 107.928 141.549C107.783 141.267 107.731 140.984 107.771 140.699C107.807 140.415 107.925 140.148 108.126 139.898C108.328 139.647 108.603 139.432 108.953 139.254Z" fill="white"/>
<path d="M104.293 141.471L105.943 145.465L107.185 144.955L107.55 145.839L104.061 147.27L103.696 146.386L104.925 145.882L103.274 141.888L104.293 141.471Z" fill="white"/>
<path d="M97.8215 143.688C98.2012 143.569 98.5743 143.523 98.9407 143.551C99.3071 143.579 99.6495 143.672 99.9679 143.829C100.283 143.993 100.558 144.211 100.793 144.483C101.028 144.755 101.205 145.076 101.322 145.445C101.439 145.814 101.482 146.177 101.45 146.534C101.414 146.891 101.314 147.225 101.149 147.534C100.979 147.845 100.752 148.117 100.468 148.35C100.184 148.582 99.8507 148.759 99.4665 148.88C99.0823 149.001 98.7071 149.047 98.3406 149.019C97.9738 148.99 97.6336 148.897 97.32 148.738C97.0021 148.581 96.7276 148.366 96.4966 148.092C96.2612 147.819 96.0854 147.498 95.9686 147.129C95.8513 146.76 95.8109 146.397 95.8464 146.039C95.8824 145.681 95.9841 145.344 96.1524 145.029C96.3181 144.72 96.5424 144.449 96.8266 144.216C97.1104 143.983 97.4422 143.807 97.8215 143.688ZM98.1208 144.633C97.8139 144.73 97.5603 144.886 97.3605 145.102C97.1579 145.325 97.0256 145.582 96.9639 145.873C96.8977 146.166 96.9159 146.475 97.0189 146.799C97.1215 147.123 97.2841 147.386 97.507 147.588C97.7255 147.792 97.9813 147.924 98.274 147.985C98.5623 148.048 98.8598 148.032 99.1672 147.935C99.4741 147.838 99.7299 147.681 99.9342 147.463C100.134 147.247 100.267 146.992 100.333 146.699C100.395 146.408 100.374 146.1 100.271 145.776C100.169 145.452 100.008 145.188 99.7898 144.984C99.5669 144.782 99.3102 144.647 99.0206 144.58C98.7279 144.519 98.4281 144.536 98.1208 144.633Z" fill="white"/>
<path d="M94.0402 144.804L95.2003 149.951L93.0787 150.426C92.723 150.506 92.3947 150.514 92.0936 150.45C91.7885 150.388 91.5296 150.253 91.3173 150.044C91.1054 149.835 90.9589 149.551 90.8776 149.191C90.799 148.841 90.8123 148.524 90.918 148.239C91.0246 147.959 91.2005 147.726 91.4452 147.54L89.8037 145.753L91.0104 145.483L92.4778 147.113L93.386 146.91L92.9655 145.045L94.0402 144.804ZM93.5961 147.843L92.5422 148.079C92.3157 148.129 92.15 148.234 92.0452 148.393C91.9355 148.553 91.9044 148.739 91.9524 148.951C92.0013 149.168 92.1096 149.325 92.2771 149.422C92.4405 149.522 92.635 149.545 92.8615 149.495L93.9154 149.259L93.5961 147.843Z" fill="white"/>
<path d="M87.5391 146.04L87.8527 148.32L90.0111 151.027L88.7858 151.194L87.4601 149.481L86.6526 151.485L85.4277 151.652L86.7623 148.476L86.4479 146.189L87.5391 146.04Z" fill="white"/>
</svg>
