<svg width="45" height="45" viewBox="0 0 45 45" fill="none" xmlns="http://www.w3.org/2000/svg">
<path d="M18.2637 0H1.31836C0.590172 0 0 0.590172 0 1.31836V18.2637C0 18.9919 0.590172 19.5821 1.31836 19.5821H8.47252V30.9729C8.47252 31.7007 9.06269 32.2912 9.79088 32.2912H14.0275C14.595 32.2912 15.0986 31.928 15.2779 31.3897L19.5141 18.6805C19.5591 18.5463 19.5821 18.4055 19.5821 18.2637V1.31836C19.5821 0.590172 18.9919 0 18.2637 0V0Z" fill="#E1F038"/>
<path d="M43.6817 0H26.7363C26.0081 0 25.418 0.590172 25.418 1.31836V18.2637C25.418 18.9919 26.0081 19.5821 26.7363 19.5821H33.8908V30.9729C33.8908 31.7007 34.481 32.2912 35.2092 32.2912H39.4454C40.013 32.2912 40.5166 31.928 40.6962 31.3897L44.9324 18.6805C44.9771 18.5463 45.0001 18.4055 45.0001 18.2637V1.31836C45.0001 0.590172 44.4099 0 43.6817 0V0Z" fill="#E1F038"/>
</svg>
