<?xml version="1.0"?>
<svg xmlns="http://www.w3.org/2000/svg" xmlns:xlink="http://www.w3.org/1999/xlink" xmlns:svgjs="http://svgjs.com/svgjs" version="1.1" width="512" height="512" x="0" y="0" viewBox="0 0 512 512" style="enable-background:new 0 0 512 512" xml:space="preserve" class=""><g>
<g xmlns="http://www.w3.org/2000/svg">
	<g>
		<path d="M511.858,7.512c-0.101-4.025-3.345-7.269-7.38-7.391C501.517,0.041,498.597,0,495.809,0h-0.182    c-14.599,0-29.167,1.095-43.299,3.254c-13.524,2.07-27.01,5.179-40.162,9.237c-0.233,0.061-0.461,0.132-0.688,0.215    c-0.982,0.306-1.967,0.603-2.945,0.919c-14.882,4.815-29.724,11-44.1,18.38c-14.932,7.664-29.805,16.849-44.201,27.291    c-1.653,1.186-2.727,2.95-3.052,4.957c-0.323,1.998,0.152,4.015,1.348,5.657c1.429,1.967,3.732,3.144,6.164,3.144    c1.612,0,3.144-0.497,4.451-1.44c13.847-10.016,28.071-18.796,42.285-26.105c13.261-6.809,26.894-12.519,40.556-17.018    l71.493,71.492c-2.583,7.87-5.518,15.662-8.836,23.324c-7.978,18.451-18.329,36.821-30.758,54.583    c-13.017,18.622-28.731,37.195-46.715,55.211c-11.537,11.537-26.014,24.858-41.89,38.513    c-16.453,14.173-34.083,28.426-50.983,41.231c-17.132,13.007-33.465,24.474-48.559,34.095c-1.483,0.946-2.94,1.861-4.386,2.762    l-89.063-89.062c6.889-11.068,14.919-22.976,23.933-35.465c27.656-38.412,64.031-81.721,92.67-110.35    c8.82-8.83,17.853-17.164,26.825-24.787c3.193-2.718,3.579-7.522,0.872-10.716c-1.451-1.703-3.559-2.687-5.8-2.687    c-1.804,0-3.548,0.65-4.917,1.815c-9.317,7.909-18.643,16.526-27.737,25.619c-5.739,5.739-11.828,12.103-18.137,18.943    c-16.504-1.388-74.524,2.096-168.492,96.01c-0.009,0.008-0.017,0.016-0.024,0.024c-0.036,0.038-0.073,0.072-0.111,0.109    c-0.05,0.05-0.092,0.103-0.141,0.155c-0.109,0.115-0.218,0.232-0.319,0.355c-0.08,0.096-0.153,0.196-0.228,0.295    c-0.074,0.097-0.148,0.193-0.218,0.295c-0.091,0.133-0.172,0.27-0.253,0.406c-0.036,0.061-0.077,0.116-0.111,0.177    c-0.011,0.02-0.018,0.04-0.028,0.059c-0.082,0.151-0.155,0.306-0.227,0.461c-0.036,0.077-0.074,0.153-0.106,0.23    c-0.06,0.142-0.109,0.285-0.159,0.43c-0.034,0.097-0.072,0.194-0.102,0.291c-0.035,0.118-0.063,0.236-0.093,0.356    c-0.031,0.126-0.066,0.25-0.091,0.377c-0.019,0.093-0.029,0.189-0.046,0.282c-0.023,0.15-0.05,0.3-0.064,0.45    c-0.009,0.084-0.009,0.168-0.015,0.251c-0.01,0.159-0.021,0.319-0.022,0.477c0,0.1,0.008,0.199,0.012,0.299    c0.005,0.141,0.007,0.281,0.02,0.422c0.013,0.14,0.036,0.278,0.057,0.418c0.015,0.097,0.024,0.196,0.043,0.293    c0.032,0.173,0.077,0.346,0.122,0.517c0.016,0.062,0.027,0.125,0.046,0.186c0.052,0.181,0.115,0.359,0.181,0.536    c0.019,0.051,0.033,0.103,0.054,0.153c0.064,0.16,0.138,0.317,0.212,0.473c0.032,0.067,0.061,0.138,0.095,0.205    c0.065,0.126,0.14,0.248,0.213,0.372c0.055,0.094,0.106,0.191,0.166,0.282c0.061,0.093,0.129,0.182,0.193,0.275    c0.084,0.118,0.166,0.235,0.256,0.35c0.057,0.069,0.119,0.136,0.177,0.204c0.107,0.126,0.218,0.251,0.335,0.37    c0.016,0.017,0.029,0.034,0.046,0.051c0.052,0.052,0.106,0.094,0.159,0.144c0.115,0.108,0.229,0.216,0.351,0.318    c0.095,0.079,0.194,0.15,0.291,0.225c0.099,0.075,0.197,0.151,0.301,0.221c0.13,0.089,0.264,0.169,0.398,0.248    c0.063,0.038,0.121,0.079,0.185,0.115l59.362,32.976c-7.2,12.405-12.649,23.405-16.252,32.887    c-1.064,2.788-0.385,5.951,1.734,8.07l17.977,17.977c0.003,0.003,0.006,0.007,0.009,0.01s0.007,0.006,0.01,0.009l21.486,21.486    c0.003,0.003,0.006,0.007,0.009,0.01c0.003,0.003,0.007,0.006,0.01,0.009l21.486,21.487c0.004,0.003,0.007,0.007,0.01,0.01    c0.003,0.003,0.007,0.006,0.01,0.009l17.976,17.975c1.419,1.419,3.386,2.23,5.393,2.23c0.923,0,1.825-0.172,2.676-0.497    c9.464-3.602,20.488-9.048,32.891-16.247l32.886,59.202c0.002,0.003,0.004,0.006,0.005,0.009l0.083,0.149    c0.018,0.031,0.041,0.059,0.059,0.09c0.133,0.232,0.279,0.455,0.439,0.675c0.049,0.067,0.097,0.136,0.148,0.201    c0.164,0.212,0.341,0.417,0.53,0.613c0.031,0.032,0.06,0.069,0.092,0.101c0.001,0.001,0.002,0.003,0.003,0.004    c0.214,0.214,0.44,0.408,0.671,0.591c0.072,0.057,0.148,0.108,0.222,0.162c0.184,0.135,0.37,0.26,0.563,0.376    c0.071,0.043,0.142,0.085,0.214,0.126c0.258,0.144,0.519,0.275,0.787,0.387c0.006,0.002,0.012,0.006,0.018,0.008    c0.287,0.119,0.58,0.215,0.876,0.297c0.064,0.018,0.128,0.03,0.191,0.047c0.232,0.058,0.466,0.104,0.702,0.14    c0.082,0.012,0.162,0.025,0.244,0.035c0.285,0.032,0.573,0.056,0.86,0.056c0.012,0.001,0.024,0.003,0.036,0.003    c0.03,0,0.062-0.005,0.092-0.006c0.247-0.003,0.494-0.018,0.739-0.046c0.101-0.011,0.201-0.028,0.302-0.044    c0.191-0.028,0.378-0.064,0.567-0.107c0.097-0.022,0.193-0.044,0.289-0.07c0.243-0.065,0.484-0.144,0.719-0.233    c0.033-0.013,0.067-0.021,0.101-0.034c0.282-0.113,0.559-0.245,0.827-0.393c0.016-0.009,0.032-0.014,0.049-0.022    c0.06-0.032,0.113-0.072,0.171-0.107c0.141-0.083,0.279-0.166,0.416-0.26c0.098-0.066,0.191-0.139,0.284-0.209    c0.103-0.077,0.207-0.153,0.307-0.237c0.117-0.097,0.226-0.199,0.336-0.302c0.057-0.054,0.116-0.1,0.171-0.155    c0.042-0.042,0.081-0.082,0.123-0.124c0.001-0.002,0.003-0.003,0.003-0.003c93.928-93.98,97.403-152.005,96.014-168.509    c6.791-6.267,13.156-12.355,18.933-18.134c18.583-18.552,34.884-37.804,48.449-57.248c12.977-18.583,23.814-37.855,32.218-57.279    c4.079-9.419,7.637-19.012,10.664-28.706c0.132-0.344,0.235-0.696,0.316-1.052c2.764-8.999,5.089-18.075,6.918-27.182    c3.67-18.268,5.525-37.186,5.505-56.214C511.989,13.311,511.939,10.402,511.858,7.512z M99.329,222.819    c29.499-28.561,70.753-62.78,111.688-77.756c10.215-3.738,18.53-5.563,24.892-6.403c-4.626,5.261-9.317,10.707-14.036,16.307    c-17.103,20.276-33.698,41.474-47.992,61.313c-8.983,12.491-16.857,24.12-23.596,34.847L99.329,222.819z M214.089,369.799    l-9.066-9.066l1.793-1.794c2.969-2.969,2.969-7.784-0.001-10.752c-2.97-2.968-7.783-2.969-10.752,0.001l-1.792,1.793    l-10.752-10.752l1.792-1.793c2.969-2.97,2.969-7.784,0-10.753c-2.97-2.968-7.784-2.968-10.753,0l-1.793,1.792l-10.751-10.751    l1.792-1.793c2.969-2.97,2.969-7.784,0-10.753c-2.97-2.968-7.784-2.968-10.753,0l-1.793,1.793l-9.066-9.066    c2.94-6.959,6.983-14.941,12.045-23.806l83.658,83.657C229.033,362.814,221.066,366.847,214.089,369.799z M366.927,300.975    c-14.975,40.938-49.192,82.191-77.754,111.69l-28.313-50.967c15.832-9.933,33.537-22.298,52.62-36.74    c20.445-15.486,41.194-32.464,59.848-48.873C372.488,282.447,370.663,290.761,366.927,300.975z M491.562,69.393    c-0.932,4.667-2.002,9.326-3.197,13.968l-59.748-59.746c8.632-2.222,17.378-4.014,26.144-5.346    c13.331-2.017,27.149-3.052,41.048-3.063c0.324,0,0.65,0,0.963,0c0.01,0.324,0.01,0.65,0.01,0.973    C496.752,34.306,494.997,52.21,491.562,69.393z" fill="#ffffff" data-original="#000000" style=""/>
	</g>
</g>
<g xmlns="http://www.w3.org/2000/svg">
	<g>
		<path d="M163.805,348.185c-11.011-11.01-25.649-17.073-41.22-17.073c-15.57,0-30.209,6.062-41.217,17.073    c-10.991,10.99-35.293,43.862-53.951,75.279c-10.837,18.247-18.579,33.901-23.01,46.524c-6.197,17.653-5.845,29.598,1.077,36.521    C9.128,510.153,14.271,512,20.772,512c37.77,0,126.744-65.091,143.034-81.377C186.532,407.893,186.532,370.912,163.805,348.185z     M153.052,419.87c-8.349,8.347-34.269,27.959-61.586,45.089c-32.263,20.231-58.03,31.834-70.694,31.834    c-2.191,0-3.886-0.388-4.536-1.037c-2.455-2.454-2.883-18.831,24.255-64.526c19.458-32.762,42.878-63.541,51.629-72.292    c8.137-8.137,18.957-12.619,30.465-12.619c11.509,0,22.329,4.482,30.467,12.62C169.85,375.736,169.849,403.071,153.052,419.87z" fill="#ffffff" data-original="#000000" style=""/>
	</g>
</g>
<g xmlns="http://www.w3.org/2000/svg">
	<g>
		<path d="M320.892,191.097c-8.139-8.139-18.959-12.621-30.466-12.621c-11.508,0-22.329,4.483-30.465,12.62    c-8.139,8.138-12.622,18.958-12.622,30.467c0,11.508,4.483,22.328,12.621,30.465s18.957,12.62,30.466,12.62    c11.508,0,22.328-4.482,30.465-12.619c8.14-8.137,12.622-18.957,12.621-30.467C333.512,210.054,329.03,199.235,320.892,191.097z     M310.138,241.275c-5.265,5.266-12.267,8.166-19.712,8.166c-7.447,0-14.447-2.899-19.713-8.166    c-5.266-5.265-8.167-12.267-8.167-19.712c0-7.447,2.9-14.448,8.168-19.714c5.265-5.266,12.267-8.166,19.712-8.166    c7.446,0,14.447,2.899,19.712,8.167c5.267,5.266,8.167,12.267,8.167,19.713C318.306,229.01,315.406,236.011,310.138,241.275z" fill="#ffffff" data-original="#000000" style=""/>
	</g>
</g>
<g xmlns="http://www.w3.org/2000/svg">
	<g>
		<path d="M406.923,105.065c-8.138-8.139-18.958-12.621-30.466-12.621c-11.51,0-22.329,4.482-30.468,12.62    c-16.798,16.799-16.798,44.133,0.001,60.932c8.139,8.139,18.958,12.621,30.467,12.621c11.508,0,22.328-4.482,30.465-12.62    c8.139-8.137,12.621-18.957,12.621-30.466C419.541,124.022,415.06,113.203,406.923,105.065z M396.169,155.245    c-5.265,5.266-12.267,8.166-19.712,8.166c-7.447,0-14.448-2.9-19.714-8.167c-10.871-10.869-10.871-28.555-0.001-39.425    c5.267-5.266,12.269-8.167,19.715-8.167c7.446,0,14.447,2.899,19.712,8.167c5.266,5.265,8.167,12.267,8.167,19.713    C404.336,142.979,401.436,149.979,396.169,155.245z" fill="#ffffff" data-original="#000000" style=""/>
	</g>
</g>
<g xmlns="http://www.w3.org/2000/svg">
	<g>
		<path d="M142.3,369.69c-5.267-5.264-12.268-8.166-19.715-8.165c-7.447,0-14.448,2.899-19.714,8.165    c-4.519,4.52-19.91,23.318-32.807,41.353c-7.56,10.571-13.267,19.452-16.961,26.401c-4.49,8.442-8.281,17.871-2.354,23.799    c1.389,1.388,3.877,3.042,7.849,3.042c3.215,0,11.752,0,46.243-25.171c17.111-12.486,33.349-25.886,37.459-29.996    C153.17,398.247,153.17,380.561,142.3,369.69z M131.546,398.364c-3.018,3.019-18.233,15.722-35.355,28.237    c-15.59,11.395-25.05,17.013-30.585,19.784c2.771-5.535,8.388-14.995,19.784-30.585c12.515-17.124,25.216-32.339,28.235-35.356    c2.393-2.394,5.576-3.711,8.961-3.711c3.385,0,6.568,1.318,8.961,3.711C136.487,385.385,136.487,393.424,131.546,398.364z" fill="#ffffff" data-original="#000000" style=""/>
	</g>
</g>
<g xmlns="http://www.w3.org/2000/svg">
</g>
<g xmlns="http://www.w3.org/2000/svg">
</g>
<g xmlns="http://www.w3.org/2000/svg">
</g>
<g xmlns="http://www.w3.org/2000/svg">
</g>
<g xmlns="http://www.w3.org/2000/svg">
</g>
<g xmlns="http://www.w3.org/2000/svg">
</g>
<g xmlns="http://www.w3.org/2000/svg">
</g>
<g xmlns="http://www.w3.org/2000/svg">
</g>
<g xmlns="http://www.w3.org/2000/svg">
</g>
<g xmlns="http://www.w3.org/2000/svg">
</g>
<g xmlns="http://www.w3.org/2000/svg">
</g>
<g xmlns="http://www.w3.org/2000/svg">
</g>
<g xmlns="http://www.w3.org/2000/svg">
</g>
<g xmlns="http://www.w3.org/2000/svg">
</g>
<g xmlns="http://www.w3.org/2000/svg">
</g>
</g></svg>
