<?xml version="1.0"?>
<svg xmlns="http://www.w3.org/2000/svg" xmlns:xlink="http://www.w3.org/1999/xlink" xmlns:svgjs="http://svgjs.com/svgjs" version="1.1" width="512" height="512" x="0" y="0" viewBox="0 0 512 512" style="enable-background:new 0 0 512 512" xml:space="preserve"><g><g xmlns="http://www.w3.org/2000/svg"><g><path d="m288.36 512h-64.72c-22.426 0-40.67-18.245-40.67-40.67v-25.81c0-9.593-5.327-18.333-13.901-22.812-4.765-2.487-9.44-5.191-13.896-8.038-8.188-5.211-18.448-5.47-26.767-.673l-22.365 12.917c-19.427 11.212-44.352 4.535-55.566-14.884l-32.36-56.06c-5.432-9.404-6.874-20.364-4.062-30.859 2.812-10.493 9.541-19.263 18.946-24.695l22.381-12.92c8.305-4.798 13.213-13.8 12.807-23.491-.236-5.519-.235-10.493 0-16.016.406-9.684-4.502-18.686-12.809-23.485l-22.378-12.919c-9.406-5.433-16.135-14.203-18.947-24.696-2.812-10.495-1.369-21.455 4.063-30.86l10.099-17.489c2.072-3.587 6.657-4.818 10.246-2.744 3.587 2.071 4.815 6.658 2.744 10.245l-10.1 17.49c-3.429 5.936-4.339 12.852-2.563 19.476s6.022 12.16 11.959 15.589l22.379 12.919c13.159 7.602 20.935 21.821 20.293 37.11-.217 5.109-.217 9.638 0 14.744.642 15.295-7.134 29.515-20.291 37.116l-22.382 12.92c-5.936 3.428-10.183 8.964-11.958 15.588s-.865 13.541 2.563 19.476l32.359 56.061c7.078 12.256 22.812 16.471 35.076 9.394l22.368-12.919c13.183-7.602 29.4-7.21 42.328 1.018 4.1 2.619 8.394 5.103 12.773 7.388 13.545 7.074 21.959 20.91 21.959 36.109v25.81c0 14.154 11.516 25.67 25.67 25.67h64.721c14.154 0 25.67-11.516 25.67-25.67v-25.81c0-15.199 8.414-29.035 21.958-36.108 4.381-2.287 8.675-4.771 12.765-7.382 12.938-8.235 29.156-8.626 42.333-1.027l22.375 12.922c12.26 7.076 27.994 2.862 35.075-9.396l32.358-56.058c3.429-5.937 4.339-12.853 2.563-19.477s-6.022-12.16-11.959-15.589l-22.379-12.919c-13.159-7.602-20.935-21.821-20.293-37.11.217-5.109.217-9.638 0-14.744-.642-15.295 7.134-29.515 20.291-37.116l22.382-12.921c5.936-3.428 10.183-8.964 11.958-15.588s.865-13.541-2.563-19.476l-32.359-56.061c-7.079-12.256-22.813-16.472-35.076-9.394l-22.368 12.919c-13.184 7.602-29.4 7.21-42.328-1.018-4.1-2.619-8.394-5.103-12.773-7.388-13.545-7.074-21.959-20.91-21.959-36.109v-25.81c0-14.154-11.516-25.67-25.67-25.67h-64.72c-14.154 0-25.67 11.516-25.67 25.67v25.81c0 15.199-8.414 29.035-21.958 36.108-4.381 2.287-8.675 4.771-12.765 7.382-12.938 8.235-29.156 8.626-42.333 1.027l-22.375-12.922c-12.261-7.076-27.994-2.862-35.075 9.396l-7.348 12.736c-2.07 3.588-6.657 4.819-10.244 2.749-3.588-2.07-4.818-6.657-2.748-10.244l7.35-12.74c11.217-19.422 36.142-26.1 55.565-14.888l22.372 12.921c8.316 4.795 18.576 4.535 26.771-.683 4.445-2.84 9.121-5.544 13.887-8.032 8.573-4.478 13.9-13.218 13.9-22.811v-25.809c.001-22.425 18.245-40.67 40.671-40.67h64.721c22.426 0 40.67 18.245 40.67 40.67v25.81c0 9.593 5.327 18.333 13.901 22.812 4.765 2.487 9.44 5.191 13.896 8.038 8.188 5.21 18.448 5.47 26.767.673l22.365-12.917c19.427-11.213 44.352-4.534 55.566 14.884l32.359 56.061c5.432 9.404 6.874 20.364 4.062 30.859-2.812 10.493-9.541 19.263-18.946 24.695l-22.381 12.92c-8.305 4.798-13.213 13.8-12.807 23.491.236 5.519.235 10.493 0 16.016-.406 9.684 4.502 18.686 12.809 23.485l22.378 12.918c9.406 5.433 16.135 14.203 18.947 24.696 2.812 10.495 1.369 21.455-4.063 30.86l-32.358 56.058c-7.525 13.031-21.229 20.325-35.296 20.326-6.897 0-13.879-1.752-20.269-5.44l-22.372-12.921c-8.316-4.795-18.576-4.535-26.771.683-4.445 2.84-9.121 5.544-13.887 8.032-8.573 4.478-13.9 13.218-13.9 22.811v25.81c-.001 22.425-18.245 40.67-40.671 40.67z" fill="#ffffff" data-original="#000000" style=""/><path d="m256 407.009c-83.267 0-151.009-67.743-151.009-151.009s67.742-151.009 151.009-151.009 151.009 67.742 151.009 151.009-67.742 151.009-151.009 151.009zm0-287.018c-74.995 0-136.009 61.014-136.009 136.009s61.014 136.009 136.009 136.009 136.009-61.013 136.009-136.009-61.014-136.009-136.009-136.009z" fill="#ffffff" data-original="#000000" style=""/></g><g><path d="m221.804 366.003c-8.547 0-16.493-4.488-20.91-11.874l-49.601-82.961c-6.89-11.531-3.118-26.52 8.406-33.415l25.024-14.952c5.588-3.339 12.144-4.303 18.448-2.718 6.312 1.587 11.627 5.54 14.967 11.129l18.115 30.301 45.586-91.975c5.977-12.039 20.626-16.97 32.655-10.998l26.114 12.938c12.039 5.969 16.978 20.616 11.011 32.652l-48.311 97.469c-1.839 3.711-6.336 5.229-10.051 3.389-3.711-1.839-5.229-6.339-3.389-10.05l48.311-97.47c2.294-4.626.395-10.256-4.231-12.55l-26.118-12.939c-4.628-2.295-10.258-.4-12.554 4.225l-51.686 104.287c-1.219 2.459-3.683 4.056-6.425 4.164-2.726.115-5.324-1.29-6.732-3.646l-25.17-42.1c-2.648-4.433-8.41-5.879-12.846-3.23l-25.021 14.95c-4.427 2.648-5.877 8.412-3.228 12.844l49.599 82.958c1.763 2.948 4.989 4.689 8.4 4.565l35.158-1.38c3.417-.139 6.492-2.131 8.015-5.2l11.199-22.597c1.839-3.71 6.339-5.229 10.05-3.39 3.712 1.839 5.229 6.339 3.39 10.05l-11.2 22.601c-3.961 7.982-11.951 13.163-20.855 13.523l-35.17 1.381c-.317.013-.635.019-.95.019z" fill="#ffffff" data-original="#000000" style=""/></g></g></g></svg>
