<svg width="111" height="11" viewBox="0 0 111 11" fill="none" xmlns="http://www.w3.org/2000/svg">
<path d="M55.0277 10.2332H51.2302V0.148094H55.0277V10.2332ZM51.6011 9.8648H54.6568V0.516486H51.6011V9.8648ZM60.3114 10.2332H56.5904V0.148094H64.3647C65.4784 0.0584985 66.5875 0.369107 67.4902 1.02339C67.8787 1.37654 68.1799 1.8141 68.3702 2.30193C68.5604 2.78976 68.6347 3.31467 68.5871 3.8357C68.6426 4.73603 68.3541 5.62401 67.7794 6.32235C67.0993 7.09744 65.9675 7.49678 64.4159 7.51078C64.025 7.52109 61.0961 7.51078 60.3136 7.51078L60.3114 10.2332ZM56.959 9.8648H59.9406V7.1387H60.1267C60.1646 7.1387 63.9672 7.15049 64.407 7.1387C65.8525 7.12618 66.8916 6.77031 67.4991 6.07552C68.0107 5.4437 68.2648 4.64406 68.2111 3.83496C68.2567 3.36811 68.1934 2.8971 68.0262 2.45846C67.859 2.01981 67.5923 1.62532 67.2469 1.30558C66.4099 0.708859 65.386 0.428753 64.3595 0.515749H56.9612L56.959 9.8648ZM63.577 5.24517H59.9153V2.49991H63.6015C63.8628 2.46404 64.129 2.49434 64.3753 2.58798C64.6217 2.68162 64.8403 2.83557 65.0107 3.03555C65.1654 3.29117 65.2383 3.58739 65.2199 3.88506C65.2338 4.16143 65.1736 4.43652 65.0456 4.68226C64.8697 4.8929 64.6422 5.05504 64.385 5.15311C64.1279 5.25117 63.8496 5.28186 63.577 5.24222V5.24517ZM60.2862 4.87677H63.577C64.1852 4.87677 64.562 4.75078 64.7289 4.49144C64.8208 4.30293 64.8624 4.09414 64.8498 3.88506C64.866 3.66554 64.8181 3.44604 64.7118 3.2529L64.7074 3.24627C64.5308 2.9884 64.18 2.8683 63.6015 2.8683H60.2862V4.87677ZM75.3549 10.382C72.0248 10.382 70.0371 9.56051 69.2798 7.87106C69.1559 7.54475 69.0718 7.20489 69.0291 6.85872L68.9965 6.64653H72.9586L72.9845 6.80125C73.015 6.95837 73.0821 7.10622 73.1803 7.23301C73.3368 7.42089 73.859 7.73623 75.5915 7.73623C77.6742 7.73623 77.6742 7.373 77.6742 7.17775C77.6742 6.84841 77.4331 6.73568 75.7347 6.5559L75.4121 6.5257C74.7727 6.46602 73.9643 6.39013 73.5949 6.35845C70.4799 6.07847 69.0892 5.11696 69.0892 3.24185C69.0892 1.27242 71.4559 0 75.1191 0C78.1073 0 80.0327 0.782465 80.8404 2.3275C81.0321 2.68689 81.1608 3.07607 81.2209 3.47836L81.2469 3.68539H77.2804L77.264 3.51888C77.2485 3.38875 77.1925 3.26667 77.1038 3.16964C76.9555 2.97219 76.4868 2.64579 75.0316 2.64579C73.2449 2.64579 72.9986 2.87272 72.9986 3.11733C72.9986 3.44373 73.563 3.5594 75.372 3.7517C76.1263 3.81286 77.339 3.93664 77.7543 3.98674C80.3658 4.26819 81.5309 5.20612 81.5309 7.02892C81.5317 8.55775 80.46 10.382 75.3549 10.382ZM69.4296 7.01492C69.4668 7.25789 69.5307 7.49607 69.6203 7.72518C70.31 9.26432 72.1865 10.0136 75.3549 10.0136C78.0042 10.0136 81.1631 9.49788 81.1631 7.02892C81.1631 5.41315 80.1321 4.61301 77.715 4.35292C77.2996 4.30282 76.0944 4.17978 75.3416 4.11789C73.4132 3.91011 72.6293 3.79959 72.6293 3.11733C72.6293 2.41149 73.474 2.2774 75.0331 2.2774C76.265 2.2774 77.0608 2.49843 77.3983 2.94419C77.4903 3.05401 77.5599 3.18066 77.603 3.317H80.8174C80.7528 3.03205 80.6505 2.75682 80.5134 2.49843C79.7717 1.08455 77.9597 0.368392 75.1206 0.368392C71.6829 0.368392 69.4615 1.49641 69.4615 3.24185C69.4615 4.90698 70.7083 5.72923 73.6291 5.99153C73.9999 6.02321 74.8076 6.0991 75.4484 6.15952L75.7733 6.18972C77.3508 6.35476 78.0465 6.45791 78.0465 7.17775C78.0465 7.95285 77.1469 8.10463 75.593 8.10463C74.1556 8.10463 73.2478 7.89022 72.897 7.46804C72.7888 7.33342 72.7073 7.17968 72.6567 7.01492H69.4296ZM88.5769 10.3695C84.7053 10.3695 82.5693 8.81415 82.5693 5.98932V0.148094H86.3163V5.98932C86.3163 6.95819 87.1892 7.51372 88.7104 7.51372C90.1641 7.51372 91.0668 6.93388 91.0668 6.00184V0.148094H94.7752V6.29877C94.7789 8.88562 92.5175 10.3695 88.5747 10.3695H88.5769ZM82.9401 0.516486V5.98932C82.9401 9.4802 86.4691 10.0011 88.5769 10.0011C90.756 10.0011 94.4103 9.51999 94.4103 6.29877V0.516486H91.4435V6.00184C91.4435 7.14386 90.3725 7.88211 88.7164 7.88211C86.9853 7.88211 85.9514 7.1748 85.9514 5.98932V0.516486H82.9401ZM110.49 10.2332H106.954V5.67987L104.948 10.2332H101.863L99.8787 5.68871V10.2332H96.3297V0.148094H100.998L103.423 5.7086L105.966 0.148094H110.494L110.49 10.2332ZM107.324 9.8648H110.119V0.516486H106.202L103.411 6.61632L100.752 0.516486H96.6976V9.8648H99.5049V3.91601L102.101 9.86701H104.697L107.32 3.92485L107.324 9.8648ZM3.37762 0.33229H0V10.049H9.33333V7.46215H3.37762V0.33229ZM16.1509 0.111255C11.8395 0.111255 9.57216 2.14109 9.57216 5.12139C9.57216 8.48849 11.9522 10.1964 16.1509 10.1964C20.773 10.1964 22.717 8.21588 22.717 5.12139C22.717 1.979 20.5238 0.10978 16.1509 0.10978V0.111255ZM16.1383 2.63621C16.4318 2.63484 16.7251 2.65182 17.0164 2.68705L13.2405 6.43802C13.0618 6.03653 12.9747 5.60076 12.9854 5.16191C12.9854 3.6375 13.7582 2.63474 16.1383 2.63474V2.63621ZM16.1509 7.71118C15.8681 7.71242 15.5855 7.69668 15.3046 7.66403L19.0872 3.90643C19.2592 4.30127 19.3415 4.72893 19.3282 5.15896C19.3282 6.64211 18.6162 7.70971 16.1509 7.70971V7.71118ZM29.4092 6.38497H32.8855C32.8343 6.62462 32.7277 6.84914 32.574 7.04071C31.8533 7.62397 30.9335 7.90778 30.007 7.83275C29.5407 7.88231 29.069 7.83172 28.6241 7.68438C28.1792 7.53705 27.7713 7.29643 27.4282 6.97882C27.0767 6.46668 26.9097 5.85162 26.9542 5.23338C26.8974 4.58555 27.0789 3.93923 27.4652 3.41426C27.951 2.86904 28.7736 2.634 29.9825 2.634C30.7517 2.57073 31.52 2.76698 32.1631 3.19101C32.3658 3.35095 32.5173 3.56597 32.5992 3.80991H35.8233C35.7998 3.40797 35.7025 3.01369 35.5362 2.64653C34.7641 1.08676 32.9693 0.158409 29.9173 0.158409C27.2628 0.158409 25.4812 0.962976 24.497 2.17646C23.847 3.05276 23.5133 4.12115 23.5499 5.20906C23.5079 6.32157 23.8329 7.41727 24.4755 8.32934C25.4479 9.58188 27.1797 10.1978 29.2609 10.1978C30.6445 10.2937 32.0187 9.90872 33.148 9.10886L33.2355 10.049H35.9138V4.29324H29.4092V6.38497ZM43.5153 0.109043C39.2046 0.109043 36.9365 2.13888 36.9365 5.11917C36.9365 8.48628 39.3159 10.1941 43.5153 10.1941C48.1382 10.1941 50.0821 8.21367 50.0821 5.11917C50.0821 1.979 47.889 0.10978 43.5153 0.10978V0.109043ZM43.5034 2.634C43.7892 2.63316 44.0747 2.6494 44.3586 2.68263L40.5975 6.42107C40.4244 6.02405 40.3401 5.59444 40.3505 5.16191C40.3475 3.6375 41.1233 2.63474 43.5034 2.63474V2.634ZM43.5153 7.70897C43.225 7.71019 42.9349 7.69346 42.6467 7.65887L46.4419 3.88801C46.6205 4.2881 46.7059 4.72302 46.6919 5.16043C46.6934 6.64211 45.9843 7.70971 43.5153 7.70971V7.70897Z" fill="white"/>
</svg>
